/* XPM */
static char *_93472168cba4c3c93b76cb0905714c4hl0UZoC6lCG0YRKt[] = {
/* columns rows colors chars-per-pixel */
"64 64 224 2 ",
"   c None",
".  c #010101",
"X  c #0C0201",
"o  c #0C0C0D",
"O  c #110100",
"+  c #1D0101",
"@  c #160A06",
"#  c #121212",
"$  c #1A1B1C",
"%  c #230201",
"&  c #2B0704",
"*  c #3B0202",
"=  c #320505",
"-  c #261003",
";  c #2B150E",
":  c #352218",
">  c #252525",
",  c #2A2A2A",
"<  c #323333",
"1  c #3E3E3E",
"2  c #342929",
"3  c #490303",
"4  c #5D0504",
"5  c #520303",
"6  c #421D09",
"7  c #491909",
"8  c #4F1B10",
"9  c #620505",
"0  c #6B0404",
"q  c #6E0A07",
"w  c #750405",
"e  c #7B0606",
"r  c #780B09",
"t  c #76120E",
"y  c #4E230D",
"u  c #43270A",
"i  c #413609",
"p  c #6E3313",
"a  c #723413",
"s  c #702E11",
"d  c #533131",
"f  c #673535",
"g  c #6B2C2C",
"h  c #594210",
"j  c #4F480F",
"k  c #41403F",
"l  c #7F472A",
"z  c #6F5D12",
"x  c #434343",
"c  c #4E4E4E",
"v  c #535151",
"b  c #5C5C5C",
"n  c #5B5654",
"m  c #654845",
"M  c #66564E",
"N  c #796053",
"B  c #646464",
"V  c #6B6C6C",
"C  c #6F6662",
"Z  c #747373",
"A  c #7C7C7C",
"S  c #6E7070",
"D  c #8C0607",
"F  c #840807",
"G  c #9D0808",
"H  c #9A0708",
"J  c #91100A",
"K  c #A20908",
"L  c #AC0A09",
"P  c #A80708",
"I  c #BC0606",
"U  c #BB0609",
"Y  c #B30909",
"T  c #BD0A0A",
"R  c #B70505",
"E  c #B0150C",
"W  c #893114",
"Q  c #B72812",
"!  c #A43A16",
"~  c #B93915",
"^  c #A12F13",
"/  c #C20B0A",
"(  c #C3130C",
")  c #C41C0E",
"_  c #CA1B0F",
"`  c #C9140D",
"'  c #CB1E10",
"]  c #C31616",
"[  c #C5250E",
"{  c #CC2211",
"}  c #D52613",
"|  c #D62D14",
" . c #CC3310",
".. c #C83516",
"X. c #D53416",
"o. c #DE3216",
"O. c #DA3918",
"+. c #E43919",
"@. c #E53918",
"#. c #C52424",
"$. c #8F4319",
"%. c #934218",
"&. c #A54819",
"*. c #B7471B",
"=. c #AF511D",
"-. c #BA531B",
";. c #AE7D1D",
":. c #924A26",
">. c #BC5820",
",. c #A95020",
"<. c #DB411A",
"1. c #D64A1D",
"2. c #CF5416",
"3. c #E1451C",
"4. c #E44B1D",
"5. c #ED481D",
"6. c #F54C1E",
"7. c #F0471D",
"8. c #E2501C",
"9. c #DA6819",
"0. c #C4741C",
"q. c #E27B1C",
"w. c #CC5D22",
"e. c #D35821",
"r. c #EB5722",
"t. c #FD5521",
"y. c #FE5A23",
"u. c #F65921",
"i. c #CD7B22",
"p. c #D56824",
"a. c #E56A25",
"s. c #F46425",
"d. c #FD6425",
"f. c #F56A25",
"g. c #FE6A27",
"h. c #FD6D28",
"j. c #F76F29",
"k. c #F7732A",
"l. c #FE742A",
"z. c #FE792B",
"x. c #F97A27",
"c. c #ED7E28",
"v. c #86766F",
"b. c #AE6F6F",
"n. c #CA5A5A",
"m. c #D77171",
"M. c #BE9E25",
"N. c #B6A324",
"B. c #BAA325",
"V. c #BEAB25",
"C. c #BEAB31",
"Z. c #E4861D",
"A. c #DA8A27",
"S. c #CC9526",
"D. c #C19B25",
"F. c #CB9726",
"G. c #D69727",
"H. c #C98F24",
"J. c #EC8229",
"K. c #E58127",
"L. c #FE842A",
"P. c #FF8D27",
"I. c #FC9129",
"U. c #F7882F",
"Y. c #C3AC25",
"T. c #CBA626",
"R. c #CBB326",
"E. c #C8B12A",
"W. c #D6BB27",
"Q. c #D9BE27",
"!. c #D2B92C",
"~. c #CCB034",
"^. c #ECA825",
"/. c #FFA32B",
"(. c #FDA929",
"). c #FEBC2B",
"_. c #F7B727",
"`. c #E8B629",
"'. c #DEC228",
"]. c #DBC027",
"[. c #DEC434",
"{. c #EACC29",
"}. c #E6C829",
"|. c #FDCC2A",
" X c #F7C429",
".X c #EFD129",
"XX c #F4D42A",
"oX c #FDD52B",
"OX c #FFDC2B",
"+X c #F9D827",
"@X c #FFDC32",
"#X c #FEDE3D",
"$X c #F2D330",
"%X c #FFE12B",
"&X c #CE845C",
"*X c #D0BD4C",
"=X c #F29E75",
"-X c #D6C359",
";X c #FBDD46",
":X c #F3DA56",
">X c #FFE14A",
",X c #FFE043",
"<X c #FFE355",
"1X c #E7D571",
"2X c #FEE66B",
"3X c #FFE463",
"4X c #FFE97C",
"5X c #FEE87B",
"6X c #878888",
"7X c #999797",
"8X c #B6B6B6",
"9X c #B9B9B9",
"0X c #FFEA84",
"qX c #F8E68E",
"wX c #FFED94",
"eX c #FEED9C",
"rX c #F2E394",
"tX c #FDEEA3",
"yX c #FDEFA9",
"uX c #FFF1AD",
"iX c #FFF0A7",
"pX c #FFF2B1",
"aX c #F2D59F",
"sX c #D8D8D8",
/* pixels */
"                                                                                                                                ",
"                                                                                                                                ",
"                                                                                                                                ",
"                                                                                                                                ",
"                                                                        v                       V Z                             ",
"                                                                        .                       > <                             ",
"                                                                        <                       > >                             ",
"                                                                    # V       1 <               , . . B       x >               ",
"                                                                    . V       < >               , . . b       1 $               ",
"                                                              b b m w b.      < o c           v o $         b                   ",
"                                                            k . . = I m.      < . . c       v . . <       V .                   ",
"                                                            d % % 3 R m.      > . , C       d . > v       Z <                   ",
"                                                        Z o D Y Y Y I m.  B o . >     z.:.# . #     #.F o                       ",
"                                                        V . D / T T / m.  b . . ,   aXl.g o . #     ] r .                       ",
"                                                B B B B g q P T T K 5 d B g 0 w W =X&Xp ; . 3 r n.n.T r .                       ",
"                                              > . . . . 0 / / T T D . . . e / / ` d.=.. . X F / I U / r .                       ",
"                                              2 + % + % r _ K G K F - % + F T K E e.%.. X % D T K G K t >                       ",
"                                      6X# # ; H L L L L <.f.y X X 7 4.| Y Y R * X @ X . 5 Y T L & X X n                         ",
"                                      A . . X G / T T T 3.k.6 . . 6 u.@.U T Y % . . . . 4 / / L % . . b                         ",
"                                A V Z f 0 W W Y T T _ 3.! a q q W ^ | ' T e 3 O . . % 0 D T w 3 X $ A                           ",
"                                # . . 4 / @.t.` I I X.z.p . D ` 6.7.U U / 3 . . . . * / T T * . . <                             ",
"                                : @ + q ` 5.t. .Q T | s.s + H ` 6.7.' Y K * . . . O 3 T Y K = . $ c                             ",
"                            x : p.1.P | t.d.l.).^.T T ( T P Y ( 6.y.h.! O . . . + H Y T 0 X . #                                 ",
"                            < - a.r.T o.t.g.z.oX_.( T T T T T ( u.d.k.$.. . . . + L / / 9 . . $                                 ",
"                          Z l %.s.u.o.7.d.I.(.q.9.T _ 3.{ T } o.| ..W u . . X p ! 1.Q 4 & . . #                                 ",
"                        b X w.l.t.t.y.d.x.).|.[ R U X.l.O.T 7.6./ D . . . . X w.l.z.=.. . . . #                                 ",
"                        M ; w.l.s.u.u.k.x.(._.[ T ( X.f.O.[ 5.t.' J . . . X @ w.l.h.&.. o $ $ ,                                 ",
"                      $ :.p.F.B.D.D.D.D.D.-.) T ' s.4.` q. XL.h.d.*.X . . 9 L s.s.} F . V                                       ",
"                    6XX &.z.D.N.N.N.B.N.N.~ I I _ k.4.R Z.OXI.l.z.-.X . . w / u.f.( F . A                                       ",
"                  6XN a H.(.`.Q.].R.N.E.Q.0.-.9.q./.I.9.J.(.L.h.4.~ 4 4 4 &.9.1...w 3 . A                                       ",
"                  o p z.(.OXOXOXOX{.N.].OXR.V.XXOXOXOX%X(.l.l.f.` T I T / Z.OX .G O . . A   c o                                 ",
"                  . p z.).OX+X+X+X}.C.[.@X!.Y.XXOXOXOXOX(.z.z.s.{ T ) ) [ Z. X .G X . . A   c #                                 ",
"                  o z |.oXOX!.Y.V.*XrXeXeX;XXX+XOXOXOXOX|.|.l.t.6.f._._._.9.[ T G O . . A   c o                                 ",
"                9X. z OXOX+XY.N.M.*XuXuXyX<XOXOX+XOXOXOXOXOXx.t.t.x.OX%X%X2.I T G O . . A   c #                                 ",
"              7Xv.p ;.OX{.}.W.!.-X1XuXuXiX4X3X3X<XOX.X]..XOX/.P.P./.OX_.Z. .T } Q O @ 5 m   Z A                                 ",
"              $ ; j./.OX!.N.XX#XyXyXuXuXuXuXuXpXwXOX}.N.}.OXOXOXOXOX%Xq.I I T 6.1.O * T 9 .                                     ",
"              $ 7 x./.OXW.V.$X;XtXuXuXuXuXuXuXuXwX#X}.V.'.+XOXOXoXoXOXq.T T ( 6.1.+ 3 T 4 .                                     ",
"              $ i  XoXOX+X$X0XeXuXuXuXuXuXuXuXuXiXeX2XXXW.E..XoXP.L.P.8.T o.6.t.6.K K T 4 .                                     ",
"            sX$ : +XOXOXOX@XwXpXuXuXuXuXuXuXuXuXuXpX5XOXW.B..XoXL.l.z.3.I +.y.y.6./ T / 9 .                                     ",
"            sX$ i (.|.OXOXOX2X0XiXeX5XwXuXuXuXuXuXpX4XOXW.M.`.(.z.h.h.5.} o.@.@.@.X.Q w f B                                     ",
"            sX$ 6 j.I.OXOXOXOX#XiX0XOX2XpXuXuXuXuXuX4XOXW.B.J.l.l.h.t.y.u.} U T ) j.=.. A                                       ",
"              $ 6 j.(.OXOXOXOX>XiX0X@X2XpXuXuXuXuXiX4XOXQ.B.J.l.z.l.t.t.t.} T / ' s.,.o 6X                                      ",
"              $ 6 j./.OXOX@X4XeXiXiXwXeXuXuXuXuXeX>X@XOXXXXX|. XF.A.y.@._ / ( 4.e.6 m                                           ",
"              $ 6 k./.OXOX@XwXpXuXuXuXuXuXuXuXpXwXOXOXOXOXOXOXXXV.H.y.@.U T ( s.p.O c                                           ",
"              V M &.i.).oXOX2X0XyXuXuXuXuXuXuXrX1XOXOXOXOXOXOXXXV.F.d.+.T T T ! :.n 6X                                          ",
"                9X. p l._.OXOX,XtXuXuXuXuXuXrXC.E.XXOXOXOXOXOXXXV.F.z.3.T T R % >                                               ",
"                8X. p z.(.OXOX#XeXyXuXuXyXpXtX~.E.+XOXOXOXOXOXXXV.F.k.3.T T P = <                                               ",
"                8Xo h F.Y.E.Y.!.,X>X>X5XpXpXyXrXqXwX2XOXOXOXW.T.J.a.{ ) I 4 ; 7X                                                ",
"                9X. j B.B.N.N.Y.XXOXOX2XuXuXuXpXpXpX0XOXOXOXE.M.x.r.T T I 3 o                                                   ",
"                8Xo h S.F.S.F.G.}.{.}.:X0X0X0X0X0X0X3XOXXX}.G.G.k.s.| E e f b                                                   ",
"                  . p z.l.z.l.J.M.N.N.}.OXOXOXOXOXOXOXOXQ.B.J.z.z.l.l.$.. 7X                                                    ",
"                  o a l.l.l.l.k.M.N.M.Q.OXOXOXOXOXOXOXOX!.B.c.l.l.k.k.$.o 7X                                                    ",
"                    v.6 *.y.d.d.c.c.J.G.R..XOXOXXXR.R.R.G.J.k.l.l.w.y N 8X                                                      ",
"                    6X. ! y.y.y.l.l.l.A.N.{.OXOX.XB.N.N.K.l.z.l.z.>.. V                                                         ",
"                      x :.~ ~ *.-.w.h.K.F.`. X)._.F.S.S.q.r.r.r.w.:.x 7X                                                        ",
"                        b . . . . 8 y.d.z.l.l.l.z.k.z.z.O.U / L O k                                                             ",
"                        b . . o . 8 y.s.l.l.k.k.l.k.l.k.X.U U K O x                                                             ",
"                                  v.8 y y y y y y y y y 6 * = 8                                                                 ",
"                                    . . . . . . . . . . . . . $                                                                 ",
"                                    x 1 1 1 1 1 1 1 1 1 1 1 1 v                                                                 ",
"                                                                                                                                ",
"                                                                                                                                ",
"                                                                                                                                ",
"                                                                                                                                "
};
