/* XPM */
static char *result[] = {
/* columns rows colors chars-per-pixel */
"64 64 171 2 ",
"   c black",
".  c #010101",
"X  c #020202",
"o  c gray1",
"O  c #040404",
"+  c gray2",
"@  c #060606",
"#  c #070707",
"$  c gray3",
"%  c #090909",
"&  c #0B0B0B",
"*  c #0C0C0C",
"=  c gray5",
"-  c #0E0E0E",
";  c gray6",
":  c #101010",
">  c #111111",
",  c gray7",
"<  c #131313",
"1  c gray8",
"2  c #151515",
"3  c #161616",
"4  c #181818",
"5  c gray10",
"6  c #1B1B1B",
"7  c gray11",
"8  c #1D1D1D",
"9  c #1E1E1E",
"0  c gray12",
"q  c #202020",
"w  c #222222",
"e  c #232323",
"r  c gray14",
"t  c #252525",
"y  c #272727",
"u  c #282828",
"i  c #2A2A2A",
"p  c gray18",
"a  c #2F2F2F",
"s  c gray19",
"d  c #313131",
"f  c #323232",
"g  c gray20",
"h  c #343434",
"j  c gray21",
"k  c #373737",
"l  c gray22",
"z  c #393939",
"x  c #3A3A3A",
"c  c #3C3C3C",
"v  c gray24",
"b  c #3E3E3E",
"n  c #3F3F3F",
"m  c #414141",
"M  c gray26",
"N  c #444444",
"B  c gray27",
"V  c #464646",
"C  c gray28",
"Z  c #484848",
"A  c #494949",
"S  c gray29",
"D  c #4C4C4C",
"F  c gray30",
"G  c #4E4E4E",
"H  c gray31",
"J  c #505050",
"K  c #515151",
"L  c gray32",
"P  c #535353",
"I  c gray33",
"U  c #555555",
"Y  c #565656",
"T  c gray34",
"R  c #585858",
"E  c gray35",
"W  c #5A5A5A",
"Q  c gray36",
"!  c #5D5D5D",
"~  c #5F5F5F",
"^  c #606060",
"/  c gray38",
"(  c gray39",
")  c #646464",
"_  c #656565",
"`  c gray40",
"'  c #676767",
"]  c #686868",
"[  c DimGray",
"{  c #6A6A6A",
"}  c gray42",
"|  c #6C6C6C",
" . c gray43",
".. c #6F6F6F",
"X. c #717171",
"o. c #747474",
"O. c gray46",
"+. c #777777",
"@. c gray47",
"#. c #797979",
"$. c gray48",
"%. c #7B7B7B",
"&. c #7C7C7C",
"*. c gray49",
"=. c #7E7E7E",
"-. c gray50",
";. c #808080",
":. c #818181",
">. c gray51",
",. c #838383",
"<. c #848484",
"1. c gray52",
"2. c #868686",
"3. c #888888",
"4. c #898989",
"5. c gray54",
"6. c #8B8B8B",
"7. c gray55",
"8. c #8D8D8D",
"9. c #8E8E8E",
"0. c gray56",
"q. c #909090",
"w. c gray57",
"e. c #929292",
"r. c #939393",
"t. c #959595",
"y. c gray59",
"u. c #989898",
"i. c gray60",
"p. c #9A9A9A",
"a. c #9B9B9B",
"s. c gray61",
"d. c #9D9D9D",
"f. c gray62",
"g. c #9F9F9F",
"h. c #A0A0A0",
"j. c gray63",
"k. c #A2A2A2",
"l. c gray64",
"z. c #A4A4A4",
"x. c #A5A5A5",
"c. c gray65",
"v. c #A7A7A7",
"b. c gray66",
"n. c #A9A9A9",
"m. c #AAAAAA",
"M. c gray67",
"N. c #ACACAC",
"B. c gray68",
"V. c #AEAEAE",
"C. c gray69",
"Z. c #B1B1B1",
"A. c #B2B2B2",
"S. c gray70",
"D. c gray72",
"F. c #BCBCBC",
"G. c gray74",
"H. c gray",
"J. c gray75",
"K. c #C3C3C3",
"L. c gray77",
"P. c #C6C6C6",
"I. c #C8C8C8",
"U. c gray79",
"Y. c gray80",
"T. c #CDCDCD",
"R. c gray81",
"E. c #D0D0D0",
"W. c gray82",
"Q. c LightGray",
"!. c None",
/* pixels */
"!.!.!.!.!.!.!.!.!.!.!.!.!.!.!.!.!.!.!.!.!.!.!.!.!.!.!.!.!.!.!.!.!.!.!.!.!.!.!.!.!.!.!.!.!.!.!.!.!.!.!.!.!.!.!.!.!.!.!.!.!.!.!.!.",
"!.!.!.!.!.!.!.!.!.!.!.!.!.!.!.!.!.!.!.!.!.!.!.!.!.!.!.!.!.!.!.!.!.!.!.!.!.!.!.!.!.!.!.!.!.!.!.!.!.!.!.!.!.!.!.!.!.!.!.!.!.!.!.!.",
"!.!.!.!.!.!.!.!.!.!.!.!.!.!.!.!.!.!.!.!.!.!.!.!.!.!.!.!.!.!.!.!.!.!.!.!.!.!.!.!.!.!.!.!.!.!.!.!.!.!.!.!.!.!.!.!.!.!.!.!.!.!.!.!.",
"!.!.!.!.!.!.!.!.!.!.!.!.!.!.!.!.!.!.!.!.!.!.!.!.!.!.!.!.!.!.!.!.!.!.!.!.!.!.!.!.!.!.!.!.!.!.!.!.!.!.!.!.!.!.!.!.!.!.!.!.!.!.!.!.",
"!.!.!.!.!.!.!.!.!.!.!.!.!.!.!.!.!.!.!.!.!.!.!.!.!.!.!.!.!.!.!.!.!.!.!.!.!.!.!.!.!.!.!.!.!.!.!.!.!.!.!.!.!.!.!.!.!.!.!.!.!.!.!.!.",
"!.!.!.!.!.!.!.!.!.!.!.!.!.!.!.!.!.!.!.!.!.!.!.!.!.!.!.!.!.!.!.!.!.!.!.!.!.!.!.!.!.!.!.!.!.!.!.!.!.!.!.!.!.!.!.!.!.!.!.!.!.!.!.!.",
"!.!.!.!.!.!.!.!.!.!.!.!.!.!.!.!.!.!.!.!.!.!.!.!.!.!.!.!.!.!.!.!.!.!.!.!.!.!.!.!.!.!.!.!.!.!.!.!.!.!.!.!.!.!.!.!.!.!.!.!.!.!.!.!.",
"!.!.!.!.!.!.!.!.!.!.!.!.!.!.!.!.!.!.!.!.!.!.!.!.!.!.!.!.!.!.!.!.!.!.!.!.!.!.!.!.!.!.!.!.!.!.!.!.!.!.!.!.!.!.!.!.!.!.!.!.!.!.!.!.",
"!.!.!.!.!.!.!.!.!.!.!.!.!.!.!.!.!.!.!.!.!.!.!.!.!.!.!.!.!.!.!.!.!.!.!.!.!.!.!.!.!.!.!.!.!.!.!.!.!.!.!.!.!.!.!.!.!.!.!.!.!.!.!.!.",
"!.!.!.!.!.!.!.!.!.!.!.!.!.!.!.!.!.!.!.!.!.!.!.!.!.!.!.!.!.!.!.!.!.!.!.!.!.!.!.!.!.!.!.!.!.!.!.!.!.!.!.!.!.!.!.!.!.!.!.!.!.!.!.!.",
"!.!.!.!.!.!.!.!.!.!.!.!.!.!.!.!.!.!.!.!.!.!.!.!.!.!.!.!.!.!.!.!.!.!.!.!.!.!.!.!.!.!.!.!.!.!.!.!.!.!.!.!.!.!.!.!.!.!.!.!.!.!.!.!.",
"!.!.!.!.!.!.!.!.!.!.!.!.!.!.!.!.!.!.!.!.!.!.!.!.!.!.!.!.!.!.!.!.!.!.!.!.!.!.!.!.!.!.!.!.!.!.!.!.!.!.!.!.!.!.!.!.!.!.!.!.!.!.!.!.",
"!.!.!.!.!.!.!.!.!.!.!.!.!.!.!.!.!.!.!.!.!.!.!.!.!.!.!.!.!.!.!.!.!.!.!.!.!.!.!.!.!.!.!.!.!.!.!.!.!.!.!.!.!.!.!.!.!.!.!.!.!.!.!.!.",
"!.!.!.!.!.!.!.!.!.!.!.!.!.!.!.!.!.!.!.!.!.!.!.!.!.!.!.!.!.!.!.!.!.!.!.!.!.!.!.!.!.!.!.!.!.!.!.!.!.!.!.!.!.!.!.!.!.!.!.!.!.!.!.!.",
"!.!.!.!.!.!.!.!.!.!.!.!.!.!.!.!.!.!.!.!.!.!.!.!.!.!.!.!.!.!.!.!.!.!.!.!.!.!.!.!.!.!.!.!.!.!.!.!.!.!.!.!.!.!.!.!.!.!.!.!.!.!.!.!.",
"!.!.!.!.!.!.!.!.!.!.!.!.!.!.!.!.!.!.!.!.!.!.!.!.!.!.!.!.!.!.!.!.!.!.!.!.!.!.!.!.!.!.!.!.!.!.!.!.!.!.!.!.!.!.!.!.!.!.!.!.!.!.!.!.",
"!.!.!.!.!.!.!.!.!.!.!.!.!.!.!.!.!.!.!.!.!.!.!.!.!.!.!.!.!.!.!.!.!.!.!.!.!.!.!.!.!.!.!.!.!.!.!.!.!.!.!.!.!.!.!.!.!.!.!.!.!.!.!.!.",
"!.!.!.!.!.!.!.!.!.!.!.!.!.!.!.!.!.!.!.!.!.!.!.!.!.!.!.!.!.!.!.!.!.!.!.!.!.!.!.!.!.!.!.!.!.!.!.!.!.!.!.!.!.!.!.!.!.!.!.!.!.!.!.!.",
"!.!.!.!.!.!.!.!.!.!.!.. !.!.!.!.!.!.!.!.!.!.!.!.!.!.!.!.!.!.. . !.!.!.!.!.!.!.!.!.!.!.!.!.!.!.!.!.!.!.!.!.!.!.!.!.!.!.!.!.!.!.!.",
"!.!.!.!.!.!.!.!.!.!.q 9 0 !.!.!.!.!.!.!.!.!.!.!.!.!.!.!.!.!.8 8 !.!.!.!.!.!.!.!.!.!.!.!.!.!.!.!.!.!.!.!.!.!.!.!.!.!.!.!.!.!.!.!.",
"!.!.!.!.!.!.!.!.!.  g | k   !.!.!.!.!.!.!.!.!.!.!.!.!.!.. , / T $ X !.!.!.!.!.!.!.!.!.!.!.!.!.!.!.!.!.!.!.!.!.!.!.!.!.!.!.!.!.!.",
"!.!.!.!.!.!.!.!.!.  m 0.V   !.!.!.!.!.!.!.!.!.!.!.!.!.!.  3 :.X.% X !.!.!.!.!.!.!.!.!.!.!.!.!.!.!.!.!.!.!.!.!.!.!.!.!.!.!.!.!.!.",
"!.!.!.!.!.!.!.!.!.  / Q.'   !.!.!.!.!.!.!.!.!.!.!.!.!.!.  q H.v.= . !.!.!.!.!.!.!.!.!.!.!.!.!.!.!.!.!.!.!.!.!.!.!.!.!.!.!.!.!.!.",
"!.!.!.!.!.!.!.!.a l ;.Q.$.r e !.!.!.!.!.!.!.!.!.!.!.!.!.l K L.C.d r !.!.!.!.!.!.!.!.!.!.!.!.!.!.!.!.!.!.!.!.!.!.!.!.!.!.!.!.!.!.",
"!.!.!.!.!.!.!.  B x.D.W.s.} s                         2 e.B.T.F.o.P O o !.!.!.!.!.!.!.!.!.!.!.!.!.!.!.!.!.!.!.!.!.!.!.!.!.!.!.!.",
"!.!.!.!.!.!.!.  N c.Z.J.h.,.~ m M M M M M M M M M M m H p.m.G.S.4...s i !.!.!.!.!.!.!.!.!.!.!.!.!.!.!.!.!.!.!.!.!.!.!.!.!.!.!.!.",
"!.!.!.!.!.!.!.  N v.x.x.x.c.c.c.c.c.c.c.c.c.c.c.c.c.c.c.c.x.x.x.c.i.X.J o                         !.!.!.!.!.!.!.!.!.!.!.!.!.!.!.",
"!.!.!.!.!.!.!.  N v.x.c.c.c.c.c.c.c.c.c.c.c.c.c.c.c.c.c.c.x.x.c.c.f.4.+.G D D D D D D D D D D v g t !.!.!.!.!.!.!.!.!.!.!.!.!.!.",
"!.!.!.!.!.!.!.  N v.c.c.c.c.c.c.c.c.c.c.c.c.c.c.c.c.c.c.c.c.c.c.x.c.c.v.v.v.v.v.v.v.v.v.v.v.b.1.| u     . !.!.!.!.!.!.!.!.!.!.!.",
"!.!.!.!.!.!.!.  N v.c.x.x.x.c.x.x.x.x.c.c.c.c.x.x.x.c.c.c.c.x.x.c.c.x.x.x.x.x.x.x.x.x.x.x.x.c.t.4.Y k z x 0 !.!.!.!.!.!.!.!.!.!.",
"!.!.!.!.!.!.!.  N v.c.v.c.c.x.c.v.v.c.x.c.c.x.c.v.v.c.x.x.c.v.v.c.x.c.c.c.c.c.c.c.c.c.c.c.c.x.c.c.>. ...| 8   !.!.!.!.!.!.!.!.!.",
"!.!.!.!.!.!.!.  N b.=.A %.v.c.c. .S 3.v.c.c.c.h.! P u.c.c.u.L Q h.c.c.c.c.c.c.c.c.c.c.c.c.c.c.c.x.y.7.+.{ 7   !.!.!.!.!.!.!.!.!.",
"!.!.!.!.!.!.!.  N m.Q   R n.c.c.n   ..b.c.c.c.s.q - 9.b.b.7.* 9 a.c.c.c.c.c.c.c.c.c.c.c.c.c.c.c.c.c.c.-.[ 7   !.!.!.!.!.!.!.!.!.",
"!.!.!.!.!.!.!.  N b.5.] T m m M W [ w.v.c.c.c.k.o._ A m m Z ) o.k.c.c.c.c.c.c.c.c.c.c.c.c.c.c.c.c.c.x.-.[ 7   !.!.!.!.!.!.!.!.!.",
"!.!.!.!.!.!.!.  N v.v.M.I       { N.c.x.c.c.x.c.n.p.6     5 p.n.x.z.z.x.x.x.c.c.c.c.c.c.c.c.c.c.c.c.x.-.{ 8 . !.!.!.!.!.!.!.!.!.",
"!.!.!.!.!.O o   N v.x.c.5. .....w.v.c.c.c.c.c.x.c.j.@. . .+.k.w.n k j R l.c.c.c.c.c.c.c.c.c.c.c.c.c.x.i.q.Q C 4   !.!.!.!.!.!.!.",
"!.!.!.!.!.      N v.c.x.v.b.b.b.v.x.c.x.l.k.x.c.x.c.b.b.b.b.b.2.*     d l.c.x.c.c.c.c.c.c.c.c.c.c.x.x.c.x.-.{ 5 . !.!.!.!.!.!.!.",
"!.!.!.!.!.!.@   N v.c.c.c.c.c.c.x.c.c.l.K h 6.v.c.x.c.c.c.c.c.s.#.O.O.<.x.c.c.c.c.c.c.c.c.c.c.c.c.c.c.c.x.p.w.! S 1 X !.!.!.!.!.",
"!.!.!.!.!.!.!.  N v.c.c.c.c.c.c.c.x.k.d.s % *.k.x.c.c.c.c.c.c.x.l.l.l.l.x.c.c.c.c.c.c.c.c.c.c.c.c.c.c.c.c.c.z.%.` <   !.!.!.!.!.",
"!.!.!.!.!.O O   N v.c.c.c.c.c.c.c.z.L i ' *.b d 0.v.c.c.c.c.v.9.f u y F l.c.c.c.c.c.c.c.x.c.c.c.c.c.c.c.c.c.l.$.) ,   !.!.!.!.!.",
"!.!.!.!.!..     N v.x.c.c.c.c.c.c.z.c % &.z.p > 4.v.c.c.c.c.v.3.< # + j l.c.c.c.c.c.c.x.c.j.d.d.d.d.d.d.d.z.l.$.) ,   !.!.!.!.!.",
"!.!.!.!.!.!.!.  B v.c.x.c.c.c.c.c.x.q.2.s.x.8.3.h.c.c.c.c.c.c.g.3.2.1.0.x.c.c.c.c.c.x.c.b.^ q w w w w w y 2.x.$.) ,   !.!.!.!.!.",
"!.!.!.!.!.!.!.  n p.g.c.x.c.c.c.x.x.n.M.m.n.M.M.v.x.c.c.c.c.x.c.v.b.b.v.c.c.c.c.c.x.c.h.a.G & = = = = * < ;.x.$.) ,   !.!.!.!.!.",
"!.!.!.!.!.!.!.  * 6 ! v.x.c.c.c.x.x.G.U.I.I.I.P.N.x.x.c.c.c.c.c.c.c.c.c.c.c.c.c.x.c.n.( 4 E 0.8.8.8.8.8.8.g.l.$.) ,   !.!.!.!.!.",
"!.!.!.!.!.!.!.o X   G b.x.c.c.c.b.m.K.R.R.R.R.T.Z.n.c.x.c.c.c.c.c.c.c.c.c.c.c.c.c.f.y.U : ( n.v.v.v.v.v.v.c.l.$.) ,   !.!.!.!.!.",
"!.!.!.!.!.!.!.!.!.  H n.v.v.v.v.H.Y.R.W.E.E.E.E.T.I.N.v.v.v.v.v.v.v.v.v.v.v.v.v.m.[ < P y.f.v.v.v.v.v.v.v.v.z.%._ <   !.!.!.!.!.",
"!.!.!.!.!.!.!.!.!.  D 0.9.9.9.9.z.A.Z.Z.Z.Z.Z.Z.Z.V.r.8.9.9.9.9.9.9.9.9.9.9.9.9.q.K   V w.9.9.9.9.9.9.9.9.9.6.] R 2 o !.!.!.!.!.",
"!.!.!.!.!.!.!.!.!.!.!.: : : : : , 1 1 1 1 1 1 1 1 < : : : : : : : : : : : : : : : %   $ : : : : : : : : : : ; & & !.!.!.!.!.!.!.",
"!.!.!.!.!.!.!.!.!.!.!.X . . . . . . . .             . . . . . . . . . . . . . . . . X .                       . X !.!.!.!.!.!.!.",
"!.!.!.!.!.!.!.!.!.!.!.!.!.!.!.!.!.!.!.!.!.!.!.!.!.!.!.!.!.!.!.!.!.!.!.!.!.!.!.!.!.!.!.!.!.!.!.!.!.!.!.!.!.!.!.!.!.!.!.!.!.!.!.!.",
"!.!.!.!.!.!.!.!.!.!.!.!.!.!.!.!.!.!.!.!.!.!.!.!.!.!.!.!.!.!.!.!.!.!.!.!.!.!.!.!.!.!.!.!.!.!.!.!.!.!.!.!.!.!.!.!.!.!.!.!.!.!.!.!.",
"!.!.!.!.!.!.!.!.!.!.!.!.!.!.!.!.!.!.!.!.!.!.!.!.!.!.!.!.!.!.!.!.!.!.!.!.!.!.!.!.!.!.!.!.!.!.!.!.!.!.!.!.!.!.!.!.!.!.!.!.!.!.!.!.",
"!.!.!.!.!.!.!.!.!.!.!.!.!.!.!.!.!.!.!.!.!.!.!.!.!.!.!.!.!.!.!.!.!.!.!.!.!.!.!.!.!.!.!.!.!.!.!.!.!.!.!.!.!.!.!.!.!.!.!.!.!.!.!.!.",
"!.!.!.!.!.!.!.!.!.!.!.!.!.!.!.!.!.!.!.!.!.!.!.!.!.!.!.!.!.!.!.!.!.!.!.!.!.!.!.!.!.!.!.!.!.!.!.!.!.!.!.!.!.!.!.!.!.!.!.!.!.!.!.!.",
"!.!.!.!.!.!.!.!.!.!.!.!.!.!.!.!.!.!.!.!.!.!.!.!.!.!.!.!.!.!.!.!.!.!.!.!.!.!.!.!.!.!.!.!.!.!.!.!.!.!.!.!.!.!.!.!.!.!.!.!.!.!.!.!.",
"!.!.!.!.!.!.!.!.!.!.!.!.!.!.!.!.!.!.!.!.!.!.!.!.!.!.!.!.!.!.!.!.!.!.!.!.!.!.!.!.!.!.!.!.!.!.!.!.!.!.!.!.!.!.!.!.!.!.!.!.!.!.!.!.",
"!.!.!.!.!.!.!.!.!.!.!.!.!.!.!.!.!.!.!.!.!.!.!.!.!.!.!.!.!.!.!.!.!.!.!.!.!.!.!.!.!.!.!.!.!.!.!.!.!.!.!.!.!.!.!.!.!.!.!.!.!.!.!.!.",
"!.!.!.!.!.!.!.!.!.!.!.!.!.!.!.!.!.!.!.!.!.!.!.!.!.!.!.!.!.!.!.!.!.!.!.!.!.!.!.!.!.!.!.!.!.!.!.!.!.!.!.!.!.!.!.!.!.!.!.!.!.!.!.!.",
"!.!.!.!.!.!.!.!.!.!.!.!.!.!.!.!.!.!.!.!.!.!.!.!.!.!.!.!.!.!.!.!.!.!.!.!.!.!.!.!.!.!.!.!.!.!.!.!.!.!.!.!.!.!.!.!.!.!.!.!.!.!.!.!.",
"!.!.!.!.!.!.!.!.!.!.!.!.!.!.!.!.!.!.!.!.!.!.!.!.!.!.!.!.!.!.!.!.!.!.!.!.!.!.!.!.!.!.!.!.!.!.!.!.!.!.!.!.!.!.!.!.!.!.!.!.!.!.!.!.",
"!.!.!.!.!.!.!.!.!.!.!.!.!.!.!.!.!.!.!.!.!.!.!.!.!.!.!.!.!.!.!.!.!.!.!.!.!.!.!.!.!.!.!.!.!.!.!.!.!.!.!.!.!.!.!.!.!.!.!.!.!.!.!.!.",
"!.!.!.!.!.!.!.!.!.!.!.!.!.!.!.!.!.!.!.!.!.!.!.!.!.!.!.!.!.!.!.!.!.!.!.!.!.!.!.!.!.!.!.!.!.!.!.!.!.!.!.!.!.!.!.!.!.!.!.!.!.!.!.!.",
"!.!.!.!.!.!.!.!.!.!.!.!.!.!.!.!.!.!.!.!.!.!.!.!.!.!.!.!.!.!.!.!.!.!.!.!.!.!.!.!.!.!.!.!.!.!.!.!.!.!.!.!.!.!.!.!.!.!.!.!.!.!.!.!.",
"!.!.!.!.!.!.!.!.!.!.!.!.!.!.!.!.!.!.!.!.!.!.!.!.!.!.!.!.!.!.!.!.!.!.!.!.!.!.!.!.!.!.!.!.!.!.!.!.!.!.!.!.!.!.!.!.!.!.!.!.!.!.!.!."
};
