/* XPM */
static char *result[] = {
/* columns rows colors chars-per-pixel */
"64 64 230 2 ",
"   c #010101",
".  c #0C0C07",
"X  c #15140C",
"o  c #1C180E",
"O  c #141413",
"+  c #1B1914",
"@  c #1C1C1A",
"#  c #1C1716",
"$  c #0F1312",
"%  c #221E17",
"&  c #24221B",
"*  c #28271A",
"=  c #2D301F",
"-  c #2C2C25",
";  c #262826",
":  c #322E28",
">  c #2C302B",
",  c #32332B",
"<  c #39362C",
"1  c #3B3B2D",
"2  c #383727",
"3  c #2D3131",
"4  c #333633",
"5  c #353933",
"6  c #3C3B32",
"7  c #3A3B39",
"8  c #363A3B",
"9  c #2B2C30",
"0  c #453B2C",
"q  c #423D32",
"w  c #453A31",
"e  c #3C413C",
"r  c #3D402F",
"t  c #44412A",
"y  c #444234",
"u  c #46453A",
"i  c #4A453C",
"p  c #4E4B3C",
"a  c #484436",
"s  c #544D37",
"d  c #4D503C",
"f  c #5A543C",
"g  c #625637",
"h  c #73663C",
"j  c #3F4342",
"k  c #434644",
"l  c #4C4C42",
"z  c #474C48",
"x  c #524C42",
"c  c #514C4A",
"v  c #545244",
"b  c #5B5444",
"n  c #5B5943",
"m  c #53534A",
"M  c #5A5549",
"N  c #5B5A4C",
"B  c #575A4C",
"V  c #4D5251",
"C  c #575952",
"Z  c #5B5B53",
"A  c #5C5B58",
"S  c #635C4C",
"D  c #625746",
"F  c #635C51",
"G  c #6F5D51",
"H  c #5D6055",
"J  c #5E614E",
"K  c #64624D",
"L  c #6B644D",
"P  c #6B6547",
"I  c #71674A",
"U  c #776C4A",
"Y  c #7E7047",
"T  c #646253",
"R  c #6B6553",
"E  c #6C6B54",
"W  c #64645A",
"Q  c #6A665B",
"!  c #6C6A5B",
"~  c #676956",
"^  c #736C54",
"/  c #7A6E53",
"(  c #726C5A",
")  c #756957",
"_  c #737155",
"`  c #7D7255",
"'  c #76735C",
"]  c #7A745C",
"[  c #7D7A5C",
"{  c #777859",
"}  c #6F725F",
"|  c #5C6466",
" . c #6C6C64",
".. c #686966",
"X. c #716C63",
"o. c #736E68",
"O. c #747363",
"+. c #7B7463",
"@. c #7B7B66",
"#. c #73756C",
"$. c #7C7A6C",
"%. c #79756A",
"&. c #747474",
"*. c #7C7C74",
"=. c #7B7C78",
"-. c #6E7169",
";. c #857247",
":. c #84765B",
">. c #847B5C",
",. c #8A7C5C",
"<. c #847753",
"1. c #837B63",
"2. c #8D7F63",
"3. c #847D6B",
"4. c #857A66",
"5. c #827E74",
"6. c #967E66",
"7. c #7F8173",
"8. c #8C8153",
"9. c #94835D",
"0. c #9D8B5B",
"q. c #A5945D",
"w. c #B6A15E",
"e. c #848263",
"r. c #8C8365",
"t. c #85836D",
"y. c #8B866A",
"u. c #8D8A6B",
"i. c #8C8B65",
"p. c #948363",
"a. c #938B6B",
"s. c #9B8C6A",
"d. c #9A8864",
"f. c #96926D",
"g. c #9B926D",
"h. c #99986B",
"j. c #8C8B73",
"k. c #84847A",
"l. c #898676",
"z. c #938D73",
"x. c #948D78",
"c. c #939374",
"v. c #9A9473",
"b. c #9D9A73",
"n. c #96957A",
"m. c #9B947B",
"M. c #9B9B7B",
"N. c #A48D63",
"B. c #A18D68",
"V. c #A59265",
"C. c #AC9466",
"Z. c #A4926D",
"A. c #AB926B",
"S. c #AE996F",
"D. c #A99B67",
"F. c #B2966C",
"G. c #B49B6C",
"H. c #BC9E6C",
"J. c #A29473",
"K. c #AB9671",
"L. c #A49B75",
"P. c #AC9C74",
"I. c #AA9C79",
"U. c #A4977B",
"Y. c #B39E74",
"T. c #BA9F76",
"R. c #A9A16D",
"E. c #BBA369",
"W. c #A5A275",
"Q. c #ACA375",
"!. c #AAA47B",
"~. c #ADA97C",
"^. c #A7A479",
"/. c #B4A276",
"(. c #BBA275",
"). c #B4AA75",
"_. c #BEAB76",
"`. c #B5A379",
"'. c #BBA57B",
"]. c #B4AB7C",
"[. c #BDAB7D",
"{. c #C4A36E",
"}. c #C8AB6D",
"|. c #CCB26D",
" X c #C3A474",
".X c #CCAB75",
"XX c #C5A679",
"oX c #C4AB7A",
"OX c #C9A977",
"+X c #D1AF74",
"@X c #CAB478",
"#X c #D2B275",
"$X c #DABC76",
"%X c #D5B57B",
"&X c #DBBA7B",
"*X c #D5B877",
"=X c #D1B76A",
"-X c #E1BD7D",
";X c #E2BB77",
":X c #DAC279",
">X c #E5C37E",
",X c #EAC37E",
"<X c #E8C97A",
"1X c #8A8A84",
"2X c #908B86",
"3X c #95948A",
"4X c #9A9886",
"5X c #999994",
"6X c #A29D81",
"7X c #A69C85",
"8X c #A19D97",
"9X c #AAA486",
"0X c #B9AC85",
"qX c #A3A39C",
"wX c #BBAE8E",
"eX c #AAA8A3",
"rX c #B3B2AB",
"tX c #BCB9B3",
"yX c #C8B687",
"uX c #D3BB82",
"iX c #DDBE81",
"pX c #CCBE92",
"aX c #C4AF82",
"sX c #E2BF85",
"dX c #C3BFBC",
"fX c #DCC183",
"gX c #D2C090",
"hX c #E5C382",
"jX c #EACA84",
"kX c None",
/* pixels */
"T Q rXkXkXkXkXkXkXkXkXkXkXkXkXkXkXkXkXkXkXkXkXkXkXkXkXkXkXkXkXkXkXkXkXkXkXkXkXkXkXkXkXkXkXkXkXkXkXkXkXkXkXkXkXkXkXkXkXkXkXkXkXkX",
"W v M 5.kXkXkXkXkXkXkXkXkXkXkXkXkXkXkXkXkXkXkXkXkXkXkXkXkXkXkXkXkXkXkXkXkXkXkXkXkXkXkXkXkXkXkXkXkXkXkXkXkXkXkXkXkXkXkXkXkXkXkXkX",
"5XM Q Q ! 5XkXkXkXkXkXkXkXkXkXkXkXkXkXkXkXkXkXkXkXkXkXkXkXkXkXkXkXkXkXkXkXkXkXkXkXkXkXkXkXkXkXkXkXkXkXkXkXkXkXkXkXkXkXkXkXkXkXkX",
"kX .F O.F N 5.kXkXkXkXkXkXkXkXkXkXkXkXkXkXkXkXkXkXkXkXkXkXkXkXkXkXkXkXkXkXkXkXkXkXkXkXkXkXkXkXkXkXkXkXkXkXkXkXkXkXkXkXkXkXkXkXkX",
"kXkXN N 2 b b W kXkXkXkXkXkXkXkXkXkXkXkXkXkXkXkXkXkXkXkXkXkXkXkXkXkXkXkXkXkXkXkXkXkXkXkXkXkXkXkXkXkXkXkXkXkXkXkXkXkXkXkXkXkXkXkX",
"kXkX2XN M 3.o.S N 3XkXkXkXkXkXkXkXkXkXkXkXkXkXkXkXkXkXkXkXkXkXkXkXkXkXkXkXkXkXkXkXkXkXkXkXkXkXkXkXkXkXkXkXkXkXkXkXkXkXkXkXkXkXkX",
"kXkXkXo.S +.%.1.) b $.kXkXkXkXkXkXkXkXkXkXkXkXkXkXkXkXkXkXkXkXkXkXkXkXkXkXkXkXkXkXkXkXkXkXkXkXkXkXkXkXkXkXkXkXkXkXkXkXkXkXkXkXkX",
"kXkXkXkXF ) 3.^ +.( S Q kXkXkXkXkXkXkXkXkXkXkXkXkXkXkXkXkXkXkXkXkXkXkXkXkXkXkXkXkXkXkXkXkXkXkXkXkXkXkXkXkXkXkXkXkXkXkXkXkXkXkXkX",
"kXkXkXkXkXM 3.1.^ I 1.Q D kXkXkXkXkXkXkXkXkXkXkXkXkXkXkXkXkXkXkXkXkXkXkXkXkXkXkXkXkXkXkXkXkXkXkXkXkXkXkXkXkXkXkXkXkXkXkXkXkXkXkX",
"kXkXkXkXkXk.S 2.) Q R ) ] b kXkXkXkXkXkXkXkXkXkXkXkXkXkXkXkXkXkXkXkXkXkXkXkXkXkXkXkXkXkXkXkXkXkXkXkXkXkXkXkXkXkXkXkXkXkXkXkXkXkX",
"kXkXkXkXkXkXX.o.3.F M F _ [ b 2XkXkXkXkXkXkXkXkXkXkXkXkXkXkXkXkXkXkXkXkXkXkXkXkXkXkXkXkXkXkXkXkXkXkXkXkXkXkXkXkXkXkXkXkXkXkXkXkX",
"kXkXkXkXkXkXkX .2.1.c : q R 3.b %.kXkXkXkXkXkXkXkXkXkXkXkXkXkXkXkXkXkXkXkXkXkXkXkXkXkXkXkXkXkXkXkXkXkXkXkXkXkXkXkXkXkXkXkXkXkXkX",
"kXkXkXkXkXkXkXkXS j.K * % ; M 4.K ( kXkXkXkXkXkXkXkXkXkXkXkXkXkXkXkXkXkXkXkXkXkXkXkXkXkXkXkXkXkXkXkXkXkXkXkXkXkXkXkXkXkXkXkXkXkX",
"kXkXkXkXkXkXkXkXkXK j.p & % O w ' ( F kXkXkXkXkXkXkXkXkXkXkXkXkXkXkXkXkXkXkXkXkXkXkXkXkXkXkXkXkXkXkXkXkXkXkXkXkXkXkXkXkXkXkXkXkX",
"kXkXkXkXkXkXkXkXkXA * R 1 O ; O & R +.N kXkXkXkXkXkXV 5 ; ; ; 3 3 V kXkXkXkXkXkXkXkXkXkXkXkXkXkXkXkXkXkXkXkXkXkXkXkXkXkXkXkXkXkX",
"kXkXkXkXkXkXkXkXkXkX7   ;   1XkXm X M +.F kXkXk $ $ @ 3 4 8 e j k 8 8 9 7 kXkXkXkXkXkXkXkXkXkXkXkXkXkXkXkXkXkXkXkXkXkXkXkXkXkXkX",
"kXkXkXkXkXkXkXkXkXkXkX9     9 kXkXkX@ i +.K y + 5 e z k u l v v C H H C V 8 e kXkXkXkXkXkXkXkXkXkXkXkXkXkXkXkXkXkXkXkXkXkXkXkXkX",
"kXkXkXkXkXkXkXkXkXkXkXkX@     =.kXkXkX% q O.! N l v l N K B B H H ~ ! H ~ H B z 8 kXkXkXkXkXkXkXkXkXkXkXkXkXkXkXkXkXkXkXkXkXkXkX",
"kXkXkXkXkXkXkXkXkXkXkXkXkX      kXkX=.O = t o.o.S S R K J P ~ ~ ~ E } { } ! ~ H C 7 kXkXkXkXkXkXkXkXkXkXkXkXkXkXkXkXkXkXkXkXkXkX",
"kXkXkXkXkXkXkXkXkXkXkXkXkXkX    9 ..  - r a 0 L ] E ( ^ { _ { { { { { { 7.@.} }  ...j | kXkXkXkXkXkXkXkXkXkXkXkXkXkXkXkXkXkXkXkX",
"kXkXkXkXkXkXkXkXkXkXkXkXkXkXkX    X 5 u p n f t S ( ( y.[ >.1.,.7.e.7.{ 7.8.7.7.' }  .z | kXkXkXkXkXkXkXkXkXkXkXkXkXkXkXkXkXkXkX",
"kXkXkXkXkXkXkXkXkXkXkXkXkXkXkX&.  5 r n n L / I s S +.R a.a.9.d.i.9.9.9.7.7.i.j.t.7.#.#.z -.kXkXkXkXkXkXkXkXkXkXkXkXkXkXkXkXkXkX",
"kXkXkXkXkXkXkXkXkXkXkXkXkXkXkXH @ r n f I ` U <.<.f b +.] m.J.s.s.u.i.i.i.i.c.u.i.7.t.@.#.V kXkXkXkXkXkXkXkXkXkXkXkXkXkXkXkXkXkX",
"kXkXkXkXkXkXkXkXkXkXkXkXkXkXkX$ 5 l f I ` <.<.8.8.p.g S ] / L.L.v.b.h.f.h.8.7.f.c.n.t.7.7.#.V kXkXkXkXkXkXkXkXkXkXkXkXkXkXkXkXkX",
"kXkXkXkXkXkXkXkXkXkXkXkXkXkX..O u v S U <.,.6.0.0.0.V.g S %.) !.Y.L.L.h.b.b.u.f.c.h.c.j.l.@...&.kXkXkXkXkXkXkXkXkXkXkXkXkXkXkXkX",
"kXkXkXkXkXkXkXkXkXkXkXkXkXkX; 3 l M K / ,.9.0.q.q.q.q.S.P g ) ^ !.0XK.K.b.b.b.g.i.n.n.n.j.7.*.H kXkXkXkXkXkXkXkXkXkXkXkXkXkXkXkX",
"kXkXkXkXkXkXkXkXkXkXkXkXkXkXO e v N L ` :.9.N.C.G.D.q.w.E.U D ( ^ 0XXXY.Q.R.L.L.c.h.v.M.c.j.7.} 1XkXkXkXkXkXkXkXkXkXkXkXkXkXkXkX",
"kXkXkXkXkXkXkXkXkXkXkXkXkXkX+ z M R ^ ` ,.9.d.C.G.E.E.E.w._.<.K O.I aXoXQ.Q.P.P.L.h.h.n.M.M.j.k.-.kXkXkXkXkXkXkXkXkXkXkXkXkXkXkX",
"kXkXkXkXkXkXkXkXkXkXkXkXkX..@ m S E ` :.,.6.d.N.G.E.XX+X{.w.[.Y D 4.P wXaX/./.^.W.R.b.h.b.M.c.j. .rXkXkXkXkXkXkXkXkXkXkXkXkXkXkX",
"kXkXkXkXkXkXkXkXkXkXkXkXkXk > m T ( ] ,.,.p.N.N.S.G.aXXX#X|.w.%X;.b X.P yX@X).~.~.~.^.W.b.M.4Xc.*.3XkXkXkXkXkXkXkXkXkXkXkXkXkXkX",
"kXkXkXkXkXkXkXkXkXkXkXkXkXk 4 v K ^ :.,.d.d.d.N.q.G.H.%X#X|.|.}.#X;.b +.I aXyX/.~.).W.^.b.b.6X4X1X=.kXkXkXkXkXkXkXkXkXkXkXkXkXkX",
"kXkXkXkXkXkXkXkXkXkXkXkXkXj 5 m R ' 1.2.d.B.N.N.A.C.E.}.#X&X*X#X|.*X;.b Q ` yXuX).].0XW.^.W.c.6X3X=.kXkXkXkXkXkXkXkXkXkXkXkXkXkX",
"kXkXkXkXkXkXkXkXkXkXkXkXkXk 5 N E +.4.r.d.s.B.A.C.C.F.H.+X&X-X$X@X=X&X;.D  .` yX%X0X).~.~.!.M.b.M.7.kXkXkXkXkXkXkXkXkXkXkXkXkXkX",
"kXkXkXkXkXkXkXkXkXkXkXkXkX..> H T ( 4.6.s.s.Z.A.F.F.F.H. X+X&X;X:XhX*XiXY b R / pX@XwX].).9XL.M.n.7.kXkXkXkXkXkXkXkXkXkXkXkXkXkX",
"kXkXkXkXkXkXkXkXkXkXkXkXkX=.> B E ] 4.p.s.s.Z.A.F.F.G.H.H..X*XsX<X,X*X:X&Xh b X.U pXyXaX[.).^.6Xn.k.kXkXkXkXkXkXkXkXkXkXkXkXkXkX",
"kXkXkXkXkXkXkXkXkXkXkXkXkXkX; B E ( 4.r.d.s.Z.A.F.F.G.H.H.{..X&X;X,X>X$X&X:Xh c Q :.uXuX[.].9XW.n.7.kXkXkXkXkXkXkXkXkXkXkXkXkXkX",
"kXkXkXkXkXkXkXkXkXkXkXkXkXkX> m T ' 1.2.a.Z.Z.K.Y.F.Y.T.H.{.{..XiXjX<X,X;X>X%Xg M P ,.pXyXwXW.W.c.k.kXkXkXkXkXkXkXkXkXkXkXkXkXkX",
"kXkXkXkXkXkXkXkXkXkXkXkXkXkXC 5 J ' @.2.p.g.J.K.F.Y.T.T.T.H.{.{.+X%XjXjX,X-X:X:Xg S G r.gX0X9XW.c.1XkXkXkXkXkXkXkXkXkXkXkXkXkXkX",
"kXkXkXkXkXkXkXkXkXkXkXkXkXkXkX- N E 1.2.a.s.Z.Z.S.Y.Y.T.T. X X{.+X.XsX,X<X>X*X<X@Xs K Q @.yXwX6Xc.5XkXkXkXkXkXkXkXkXkXkXkXkXkXkX",
"kXkXkXkXkXkXkXkXkXkXkXkXkXkXkXe l Z O.1.y.a.J.J.S.G.Y.T.T. X X X{.}.+X-XjX<X<X*XhXE.r W G 6.yX7Xj.tXkXkXkXkXkXkXkXkXkXkXkXkXkXkX",
"kXkXkXkXkXkXkXkXkXkXkXkXkXkXkXkX= J E 7.9.i.b.g.K.P./.(.(.(._.XX{.{..X%X-XjX<X<X$X:XC.0 S E 3.9X1XkXkXkXkXkXkXkXkXkXkXkXkXkXkXkX",
"kXkXkXkXkXkXkXkXkXkXkXkXkXkXkXkXl u E E 7.9.a.J.K.P./././.(. X XXX X{.+X%XhXjX,X$X$X:X,.0 ) ( 4.rXkXkXkXkXkXkXkXkXkXkXkXkXkXkXkX",
"kXkXkXkXkXkXkXkXkXkXkXkXkXkXkXkXkX, d } { 9.g.v.J.K.P./.(.(. X(.XXXX.X.X+X&XhXhX>XiX$X@X) w ( K 3XkXkXkXkXkXkXkXkXkXkXkXkXkXkXkX",
"kXkXkXkXkXkXkXkXkXkXkXkXkXkXkXkXkXkX2 n _ >.e.a.g.L.K.Y./.'.'.(.XXXXXX.X.X#X&XfXhX%X|.|.'.0 a +.b qXkXkXkXkXkXkXkXkXkXkXkXkXkXkX",
"kXkXkXkXkXkXkXkXkXkXkXkXkXkXkXkXkXkX#.1 K { e.i.s.v.L.I.Y.`.(.'. XXXoXOXOXOX|.%X$X&X%X}._.n.% y E i kXkXkXkXkXkXkXkXkXkXkXkXkXkX",
"kXkXkXkXkXkXkXkXkXkXkXkXkXkXkXkXkXkXkX#.2 J ' e.u.g.J.I.I.Y.`.'. XXXoXXX X XoXOX@X*XOX[.D.c.kX& v ! l kXkXkXkXkXkXkXkXkXkXkXkXkX",
"kXkXkXkXkXkXkXkXkXkXkXkXkXkXkXkXkXkXkXkXk.r B 7.e.y.v.J.L.I.`.`.'.'.XXXX'.(.(.'.[.oX_.0X6XkXkX5Xo T T M kXkXkXkXkXkXkXkXkXkXkXkX",
"kXkXkXkXkXkXkXkXkXkXkXkXkXkXkXkXkXkXkXkXkXkXd s [ 4.u.x.J.I.I.Y.T.`.`.0X'./.(.Y.`.Y.R.g.c kXkXkXc % E d W kXkXkXkXkXkXkXkXkXkXkX",
"kXkXkXkXkXkXkXkXkXkXkXkXkXkXkXkXkXkXkXkXkXkXkX&.l ! 5.j.x.v.U.L.P./.Q./.Y.K.9XI.4Xx.7XQ n o &.kXkXO 2 / s o.kXkXkXkXkXkXkXkXkXkX",
"kXkXkXkXkXkXkXkXkXkXkXkXkXkXkXkXkXkXkXkXkXkXkXkXkXO.N Q @.x.m.m.7XI.7XU.U.m.z.l.4XkXkXtXF Q & - -.& o y ! 6 1XkXkXkXkXkXkXkXkXkX",
"kXkXkXkXkXkXkXkXkXkXkXkXkXkXkXkXkXkXkXkXkXkXkXkXkXkXkXeXk. .%.$.%.$.5.5.1X3XrXkXkXkXkXkXkXT G w . O # , M S w 8XkXkXkXkXkXkXkXkX",
"kXkXkXkXkXkXkXkXkXkXkXkXkXkXkXkXkXkXkXkXkXkXkXkXkXkXkXkXkXkXkXkXkXkXkXkXkXkXkXkXkXkXkXkXkXkX! R s ; @ # < R S w kXkXkXkXkXkXkXkX",
"kXkXkXkXkXkXkXkXkXkXkXkXkXkXkXkXkXkXkXkXkXkXkXkXkXkXkXkXkXkXkXkXkXkXkXkXkXkXkXkXkXkXkXkXkXkXkX-.G F 1 % : x F f l kXkXkXkXkXkXkX",
"kXkXkXkXkXkXkXkXkXkXkXkXkXkXkXkXkXkXkXkXkXkXkXkXkXkXkXkXkXkXkXkXkXkXkXkXkXkXkXkXkXkXkXkXkXkXkXkX5.s S s w i b K q F kXkXkXkXkXkX",
"kXkXkXkXkXkXkXkXkXkXkXkXkXkXkXkXkXkXkXkXkXkXkXkXkXkXkXkXkXkXkXkXkXkXkXkXkXkXkXkXkXkXkXkXkXkXkXkXkX3XM E b v p S F < &.kXkXkXkXkX",
"kXkXkXkXkXkXkXkXkXkXkXkXkXkXkXkXkXkXkXkXkXkXkXkXkXkXkXkXkXkXkXkXkXkXkXkXkXkXkXkXkXkXkXkXkXkXkXkXkXkXeXc S g D M K x 1 5XkXkXkXkX",
"kXkXkXkXkXkXkXkXkXkXkXkXkXkXkXkXkXkXkXkXkXkXkXkXkXkXkXkXkXkXkXkXkXkXkXkXkXkXkXkXkXkXkXkXkXkXkXkXkXkXkXdXF b S b D S a q kXkXkXkX",
"kXkXkXkXkXkXkXkXkXkXkXkXkXkXkXkXkXkXkXkXkXkXkXkXkXkXkXkXkXkXkXkXkXkXkXkXkXkXkXkXkXkXkXkXkXkXkXkXkXkXkXkXkXQ p S S D i , A kXkXkX",
"kXkXkXkXkXkXkXkXkXkXkXkXkXkXkXkXkXkXkXkXkXkXkXkXkXkXkXkXkXkXkXkXkXkXkXkXkXkXkXkXkXkXkXkXkXkXkXkXkXkXkXkXkXkXk.y s N N w : =.kXkX",
"kXkXkXkXkXkXkXkXkXkXkXkXkXkXkXkXkXkXkXkXkXkXkXkXkXkXkXkXkXkXkXkXkXkXkXkXkXkXkXkXkXkXkXkXkXkXkXkXkXkXkXkXkXkXkXeXc q < * i , kXkX",
"kXkXkXkXkXkXkXkXkXkXkXkXkXkXkXkXkXkXkXkXkXkXkXkXkXkXkXkXkXkXkXkXkXkXkXkXkXkXkXkXkXkXkXkXkXkXkXkXkXkXkXkXkXkXkXkXkX .6 p v : A kX",
"kXkXkXkXkXkXkXkXkXkXkXkXkXkXkXkXkXkXkXkXkXkXkXkXkXkXkXkXkXkXkXkXkXkXkXkXkXkXkXkXkXkXkXkXkXkXkXkXkXkXkXkXkXkXkXkXkXkX1Xu 2 y , 5X",
"kXkXkXkXkXkXkXkXkXkXkXkXkXkXkXkXkXkXkXkXkXkXkXkXkXkXkXkXkXkXkXkXkXkXkXkXkXkXkXkXkXkXkXkXkXkXkXkXkXkXkXkXkXkXkXkXkXkXkXkXQ 6 , p ",
"kXkXkXkXkXkXkXkXkXkXkXkXkXkXkXkXkXkXkXkXkXkXkXkXkXkXkXkXkXkXkXkXkXkXkXkXkXkXkXkXkXkXkXkXkXkXkXkXkXkXkXkXkXkXkXkXkXkXkXkXkXqXH m "
};
