/* XPM */
static char *_7eef4bdbc364a52fbbcc1ee3e3104d43kclnI78BNSmHYQ0[] = {
/* columns rows colors chars-per-pixel */
"64 64 190 2 ",
"   c None",
".  c #040507",
"X  c #050609",
"o  c #07080B",
"O  c #0A0B0E",
"+  c #0B0D13",
"@  c #0A0C1C",
"#  c #0F1014",
"$  c #0E101B",
"%  c #121315",
"&  c #14151A",
"*  c #1A1A1D",
"=  c #0A0D21",
"-  c #0E1124",
";  c #0E112C",
":  c #121424",
">  c #161824",
",  c #1C1E23",
"<  c #11142B",
"1  c #16192C",
"2  c #1C1E29",
"3  c #090D39",
"4  c #0D1132",
"5  c #0E1239",
"6  c #121633",
"7  c #151933",
"8  c #1A1D33",
"9  c #16193C",
"0  c #1A1E3B",
"q  c #131739",
"w  c #1F2025",
"e  c #1F202A",
"r  c #1D2032",
"t  c #1E223F",
"y  c #222326",
"u  c #23252B",
"i  c #27292B",
"p  c #2A2B2D",
"a  c #2C2D32",
"s  c #20233C",
"d  c #25293E",
"f  c #2B2E39",
"g  c #222632",
"h  c #2E3133",
"j  c #2F3138",
"k  c #313234",
"l  c #343639",
"z  c #3B3B3C",
"x  c #37383C",
"c  c #141841",
"v  c #1A1E45",
"b  c #161A47",
"n  c #1E2345",
"m  c #1D2358",
"M  c #1C2154",
"N  c #222642",
"B  c #22274B",
"V  c #23294E",
"C  c #242841",
"Z  c #313347",
"A  c #3D3E42",
"S  c #30334B",
"D  c #37394D",
"F  c #3C3E4E",
"G  c #282E55",
"H  c #292F5B",
"J  c #343956",
"K  c #3C3E51",
"L  c #30355B",
"P  c #35395C",
"I  c #363B5A",
"U  c #181F61",
"Y  c #171E67",
"T  c #2F3560",
"R  c #2E356E",
"E  c #303765",
"W  c #343A62",
"Q  c #30376B",
"!  c #323869",
"~  c #222A70",
"^  c #293173",
"/  c #3F4040",
"(  c #3F4150",
")  c #434445",
"_  c #454648",
"`  c #4B4C4D",
"'  c #404450",
"]  c #4D4D51",
"[  c #44475F",
"{  c #4F5051",
"}  c #535355",
"|  c #575758",
" . c #57585D",
".. c #5C5C5D",
"X. c #4C4F6D",
"o. c #4D506F",
"O. c #5C5D63",
"+. c #5B5F68",
"@. c #4E537A",
"#. c #5C5F75",
"$. c #5F6278",
"%. c #646565",
"&. c #64656A",
"*. c #63696C",
"=. c #6C6C6D",
"-. c #6C6D71",
";. c #666878",
":. c #667072",
">. c #6F7075",
",. c #737474",
"<. c #7B7C7C",
"1. c #777878",
"2. c #535E8E",
"3. c #4B5A92",
"4. c #4F6B92",
"5. c #6C6E80",
"6. c #687082",
"7. c #7C7C84",
"8. c #606F91",
"9. c #6E749B",
"0. c #6B8B8F",
"q. c #7F8081",
"w. c #658897",
"e. c #7E8F91",
"r. c #7E89A5",
"t. c #6EA1B3",
"y. c #4FC3CD",
"u. c #44CCDC",
"i. c #848484",
"p. c #868789",
"a. c #8B8C8C",
"s. c #828D8F",
"d. c #8D8E91",
"f. c #828D90",
"g. c #908F90",
"h. c #8F9090",
"j. c #8A979A",
"k. c #939494",
"l. c #969699",
"z. c #969A9C",
"x. c #9B9C9C",
"c. c #808AA3",
"v. c #9F9FA0",
"b. c #8CA7A9",
"n. c #9DA1A1",
"m. c #9FA0A8",
"M. c #9CABAC",
"N. c #9FB3B4",
"B. c #A4A4A4",
"V. c #A8A7A7",
"C. c #A4AAAA",
"Z. c #ABABAB",
"A. c #B0AFAF",
"S. c #A8A9B0",
"D. c #A9B6B6",
"F. c #A3B3B8",
"G. c #B3B4B4",
"H. c #B6B8B8",
"J. c #BBBCBC",
"K. c #BBBCC1",
"L. c #B5C3C3",
"P. c #B1C7C9",
"I. c #B5C8C9",
"U. c #BCC8C9",
"Y. c #C1C2C2",
"T. c #C6C6C7",
"R. c #C3C3C3",
"E. c #C3CBCC",
"W. c #C9C9CA",
"Q. c #CDCDCE",
"!. c #CBCBCB",
"~. c #C7C7C8",
"^. c #CFCFD0",
"/. c #C4D3D3",
"(. c #CDD2D2",
"). c #C9DCDC",
"_. c #C6D9D9",
"`. c #D2D2D2",
"'. c #D6D6D6",
"]. c #D4D4D4",
"[. c #DBDBDB",
"{. c #D2DADA",
"}. c #DFDFE2",
"|. c #DCE6E6",
" X c #E1E3E3",
".X c #EBEBEB",
"XX c #E7EBEB",
"oX c #F0EFEE",
"OX c #F5F5F4",
"+X c #FBFBFB",
/* pixels */
"                                                                                                                                ",
"                                                                                                                                ",
"                                                                                                                                ",
"                                                                                                                                ",
"                                                                                                                                ",
"                                                        %.          x.%.                                                        ",
"                                                        z             z a.                                                      ",
"                                                      |               1.|                                                       ",
"                                                    k.`                 ` k.                                                    ",
"                                                    1.%.                %.1.Z.                                                  ",
"                                                  x.|                   x.| x.                                                  ",
"                                                J.x.{                     ` x.H.                                                ",
"                                                x.i.%.                    &.i.x.                                                ",
"                                              H.l.=.k.                    k.=.x.                                                ",
"                                            T.Y.k.| J.      k.=.-.k.        | k.Y.                                              ",
"                                            A.~.a...        &.,.,.=.        ..a.T.A.                                            ",
"                                          !.L.J.i.%.        %.x.x.%.        %.i.J.Y.                                            ",
"                                          a.T.A.,.-.        ,.v.B.,.        =.,.Z.T.d.                                          ",
"                                        T.x.v.V.%.=.      l.g.g.a.d.x.      =.%.V.v.x.                                          ",
"                                        V.`.B.i.O.-.      =.x.0.0.x.=.      -.O.i.B.`.B.                                        ",
"                                        v.[.J.,.] -.      / e.y.y.s.)       =.] ,.J.[.v.                                        ",
"                                      Z.R.`.J.i.A ;.      ..w.u.u.w...      ;.A i.J.`.R.                                        ",
"                                      B. XQ.V.i.D o.    k.<.4.t.t.4.<.k.  .XX.D i.Z.Q. XB.                                      ",
"                                    T.J..X].B.q.k D     <.i.@.K.J.@.i.1..X XD k <.B.]..XY.                                      ",
"                                    Z.Q.B.7.i.{ 0 n W.  %.p.>.`.^.5.p.%.}.!.N 8 } i.7.B.!.                                      ",
"                                    v...1 7 s 9 c 4 v.`.| i.p.d.d.p.p.| `.m.4 c 9 s 7 1 ..x.                                    ",
"                                    Z.z < u ( F 6 3 O.B.} p.g.<.1.g.p.} V. .3 6 ( ( u < A Z.                                    ",
"                                  Z.J.Q.x.x.g...0 4 2 } ..v.a.B.B.a.v...} 2 4 0 ..k.x.x.Q.J.Z.                                  ",
"                                  Z.].'.`.Y.k...2 ; + % =.V.,.H.J.1.V.=.% + < 2 | k.R.`.'.`.Z.                                  ",
"                                Y.H.(.W.J.Z.i.` > 7 # * ,.V.%.Y.Y.%.Z.-.* # 7 > ` p.Z.J.W.(.G.                                  ",
"                                C.(.XX(.G.Z.,.k 8 n * i ,.V.%.!.T.%.V.,.u * 0 8 k 1.C.G.Q.XX(.C.                                ",
"                                k.^. X|.U.n.=.y N d * p ,.B.=.Q.Q.=.V.1.p * d n y =.n.E.|. X(.k.                                ",
"                                k.'.[.!.U.F.6.2 G h % p ,.V.q.W.!.q.V.,.p % k G w 6.F.U.Q.[.].k.                                ",
"                              H.B.`.[.J.A.x.O.y W a % k =.v.l.T.T.k.B.=.k % a W u +.x.Z.J.[.`.B.H.                              ",
"                              x.H.'.l.=.S.k...u J y o z =.l.V.T.T.V.l.=.x o y J y ..k.A.=.l.'.J.x.                              ",
"                              k.Q.J.S &.A.a.=.-.d.{ % z =.g.Z.`.`.V.g.=.z % { d.*.=.a.A.&.S K.Q.k.                              ",
"                              x.[.7.- &.V.a.2.9.OX+XB.` =.p.Z.[.[.V.a.=.` V.OX.X9.2.a.V.:.- 7.[.x.                              ",
"                          Y.B.Z.W.( < _ B.r.3.' [.+XOX%.{ i.v.Q.Q.v.p.{ %.OX+X[.' 3.c.B._ ; ( !.Z.n.Y.                          ",
"                          M.k.H.S.d 8 x g.8._ a S.+XS.L N %.l.J.J.l.%.N L Z.+XV.h _ 8.g.x 8 C S.J.k.M.                          ",
"                        L.D.x.G.a.0 8 f j.l z a | -.I J H a q.B.B.<.f H I W -.| p z l j.f 8 9 p.A.x.D.L.                        ",
"                      _.F.H./ ,.i.5 r a b.a p h p * B I ! s x ) ) z s E J V & p a p a b.p e 5 i.,.) H.N.(.                      ",
"                      P.n.a.. ..d.- r i e.y * p a y > L W H % O O % G W E > y k p * y s.i 8 - d.... a.n.P.                      ",
"                    {.M.B.h o a.#.- 7 u :.w O i i k * B W E & X . > E W V , k p i # y :.u 1 - $.a.o a B.M.).                    ",
"                    /.z.,.. h v.S 7 $ g *.y O w p k / u Q E 8 X . 8 Q Q e z k p y O y *.g - 8 Z v.k . ,.z./.`.                  ",
"                  K.L.q.y X =.1.e n # h *.y & * a k ` l H R N o . N R H l ` k p * & u &.h # C e ,.>.X y q.L.L.                  ",
"                H.W.C.l X # p._ w t e %.) e 6 + p h / ` N ^ B o O V ^ t ` A k p + < e ) %.e s y _ i.% . h C.E.J.                ",
"                V._.C.# . , q.k h %.z.k., r : o i k z } f ~ M o O M ~ f } x k i o : 8 , h.z.O.p k i., . # C._.V.                ",
"              H.D.).G.i X p p.l q.W.J.p.# ; $ . * p k _ z m U + + U V A _ k p * . $ < + p.K.!.i.k p.i X i G.).G.H.              ",
"              B.G.).J...+ x i.) G.Y.B.k.k @ + @ $ i ` l / 8 Y + @ Y 8 z l ` p % @ + @ k k.B.R.A.) i.x + ..Y.).G.n.              ",
"            J.Z.L./.J.<.& ) 1.O.J.-.p ` %.& o = O i 1.%.h + 4 w , 6 # a %.<.i + = o & %.` a -.J.O.1.) % <.J._.K.V.Y.            ",
"            B.V.U./.G.1.z | 1.i.1.g : + _ z X = O i 1.B.y { z.    x.{ p v.1.p O = X z _ $ : u 1.q.<.} z 1.G./.U.V.V.            ",
"            B.Z.L./.Z.=.J.i.k.a.S n 0 5 7 ` , @ O i 1.  k ,.        -.k   1.p O @ , ` 6 6 9 n S a.k.p.J.=.Z./.L.V.v.            ",
"          T.Z.Z.I.U.B.=.Y.<.x.p.k 8 8 ; ; f ` > + p i.  | `         ` |   i.p + , ` f ; ; 8 8 j a.x.<.J.=.B.U.I.Z.Z.T.          ",
"          Z.G.H.F.z.k.=.H.,.a.  x.: v 9 5 : z z # a g.  k.k         l k.  a.p + z z = 5 q n : B.  a.,.J.=.k.z.F.H.G.A.          ",
"          V.H.B.a.H.q.=.G.=.i.    ] 6 v q 0 O.` p k       )         )     Z.k i _ O.0 c v 7 ]     p.=.G.=.q.H.a.B.H.V.          ",
"          B.Z.x.    ,.,.Z.%.B.      t v 5 X.  ,.` )       i.        i.      ) ` ,.  X.9 b s       B...A.,.,.    x.Z.B.          ",
"        J.x.B.      ,.<.B.|         a.K V l.    O.`                         ` ..    k.B K d.        | x.q.,.      B.v.J.        ",
"        Z.k.T.      a.p.a.<.                      k.                        k.                      i.a.p.a.        k.C.        ",
"        k.a.        H.i.d.                                                                            k.i.          a.k.        ",
"        *.Z.          Z.W.                                                                              Z.          H.%.        ",
"        <.                                                                                                            q.        ",
"        T.                                                                                                                      ",
"                                                                                                                                ",
"                                                                                                                                "
};
