/* XPM */
static char *_cd3d6448efb4876eba968dfd937f178ks0euEsX3VvRPGwl[] = {
/* columns rows colors chars-per-pixel */
"70 70 191 2 ",
"   c None",
".  c #030406",
"X  c #050609",
"o  c #07090D",
"O  c #090A0E",
"+  c #070911",
"@  c #0C0D12",
"#  c #0B0D1C",
"$  c #060819",
"%  c #0F1119",
"&  c #0E1010",
"*  c #121215",
"=  c #14151A",
"-  c #171819",
";  c #1A1B1D",
":  c #0B0E22",
">  c #090D2C",
",  c #0E1123",
"<  c #0D112A",
"1  c #121524",
"2  c #161824",
"3  c #1C1E23",
"4  c #12152B",
"5  c #16192D",
"6  c #1B1E2C",
"7  c #0A0E33",
"8  c #090E39",
"9  c #0D1134",
"0  c #0E123A",
"q  c #131633",
"w  c #161931",
"e  c #1A1D32",
"r  c #12163B",
"t  c #151939",
"y  c #191D3A",
"u  c #1F2126",
"i  c #1F212A",
"p  c #1E213C",
"a  c #1F2233",
"s  c #232426",
"d  c #242529",
"f  c #2A2B2C",
"g  c #272A2D",
"h  c #222532",
"j  c #2B2D33",
"k  c #21253C",
"l  c #2B2D3A",
"z  c #272A34",
"x  c #293133",
"c  c #333434",
"v  c #35363A",
"b  c #39393B",
"n  c #32383B",
"m  c #161A42",
"M  c #161C5D",
"N  c #1E2242",
"B  c #1F244C",
"V  c #1C2255",
"C  c #262944",
"Z  c #212647",
"A  c #2E3149",
"S  c #353744",
"D  c #353A44",
"F  c #3E3E42",
"G  c #37394C",
"H  c #3A3B4D",
"J  c #242A53",
"K  c #282E58",
"L  c #282E53",
"P  c #2D3152",
"I  c #2C3158",
"U  c #3C3F52",
"Y  c #31365B",
"T  c #353A5B",
"R  c #363B56",
"E  c #20276A",
"W  c #262E6F",
"Q  c #2D3362",
"!  c #2C346C",
"~  c #313662",
"^  c #323862",
"/  c #403F40",
"(  c #3F4142",
")  c #3F4048",
"_  c #3E4557",
"`  c #434445",
"'  c #494947",
"]  c #464749",
"[  c #474849",
"{  c #4B4B4C",
"}  c #484A57",
"|  c #535454",
" . c #535459",
".. c #575A5C",
"X. c #5A5B5C",
"o. c #595956",
"O. c #484B66",
"+. c #5D5E64",
"@. c #5C5E72",
"#. c #575A7D",
"$. c #5D6075",
"%. c #646465",
"&. c #64656A",
"*. c #63686D",
"=. c #6A6B6C",
"-. c #6D6E70",
";. c #656D7D",
":. c #6F7071",
">. c #677174",
",. c #737374",
"<. c #777779",
"1. c #7B7B7C",
"2. c #787878",
"3. c #81817F",
"4. c #4B5787",
"5. c #58628F",
"6. c #566786",
"7. c #7C7D83",
"8. c #717386",
"9. c #6E7493",
"0. c #5F8597",
"q. c #7A8B8E",
"w. c #6E8F94",
"e. c #7A8898",
"r. c #6E9094",
"t. c #7A85A0",
"y. c #6EA4B8",
"u. c #4FBDC6",
"i. c #47C9D7",
"p. c #838384",
"a. c #84848A",
"s. c #878889",
"d. c #8B8B8B",
"f. c #90908F",
"g. c #868890",
"h. c #8C8D91",
"j. c #928F90",
"k. c #8F9192",
"l. c #869395",
"z. c #939494",
"x. c #979798",
"c. c #95999A",
"v. c #9C9C9D",
"b. c #869EA0",
"n. c #9C9DA1",
"m. c #9FA4A4",
"M. c #9EA7A8",
"N. c #9FA9A9",
"B. c #9FAEB2",
"V. c #A4A4A4",
"C. c #A9A8A7",
"Z. c #A5AAAA",
"A. c #ABACAC",
"S. c #A8A7A8",
"D. c #AFB0AF",
"F. c #ACADB0",
"G. c #A4ACB1",
"H. c #A3B3B4",
"J. c #AFB2B2",
"K. c #AEB9B9",
"L. c #B3B4B4",
"P. c #B4B5BB",
"I. c #B5BABA",
"U. c #BBBCBC",
"Y. c #BFC0BF",
"T. c #BEBFC0",
"R. c #B3C4C4",
"E. c #BBC5C5",
"W. c #BDC8C8",
"Q. c #BCC6C8",
"!. c #C3C4C4",
"~. c #C6C6C8",
"^. c #C3CBCB",
"/. c #CBCCCC",
"(. c #D0CFD1",
"). c #C4D3D3",
"_. c #CDD1D1",
"`. c #C8DADA",
"'. c #C7DBDB",
"]. c #D4D5D4",
"[. c #D5DADA",
"{. c #DBDBDB",
"}. c #D8D8D7",
"|. c #E0E1DF",
" X c #DBE0E0",
".X c #E3E4E4",
"XX c #EBEBEB",
"oX c #E7E8E8",
"OX c #EDEDF1",
"+X c #F4F4F4",
"@X c #FCFCFC",
/* pixels */
"                                                                                                                                            ",
"                                                                                                                                            ",
"                                                                                                                                            ",
"                                                                                                                                            ",
"                                                                                                                                            ",
"                                                                                                                                            ",
"        XX.X.XXX@X+X+X                                                                                                                      ",
"        oX!.s.-.d.V.U.}.OX+X                                                                                                                ",
"          +X|.A.z.f.x.V.S.L.!.}.oX                                                                                                          ",
"                {.!.A.S.J.L.S.V.S.E.}.XX                                                                                                    ",
"                    }.S.v.D.A.V.V.V.V.I.{.                                                                                                  ",
"                      ].v.B.R.R.Q.I.J.A.D.U.{.                                                                                              ",
"                @XOX.X}.D.Z.R.^.).).`.`.).W.E.].                                                                                            ",
"            +X{.L.d.2.2.1.d.V.A.L.U.U.L.m.N.R.).[..X                                                                                        ",
"            .XD.s.1.1.,.=.=.=.2.:.,...g - c ,.c.B.R.`.oX                                                                                    ",
"            +X!.x.d.x.A.L.L.U.A.` ; + . . . f =.z.N.H.E.].                                                                                  ",
"              XX!.p.X.+.=.=.1.s.{ F v g ; @ X O b 1.A.K.N.E.                                                                                ",
"                  XX/.S.z.d.f.x.1.2.p.p.7.1.=.v @ O ` z.z.S.{.oX                                                                            ",
"                        oX!.s.a.2.%.] b c [ ,.f.p.%.,.A.L.V.V.x.n.L.}.                                                                      ",
"                        {.x.F U ,.A.F.p.c 3 h G @.7.7.z.A.!.(./.I.V.x.x.A.U.}.                                                              ",
"                      F. .h 4 y l =.Y.U.&.h y 5 < < q t C } 7.L.(.}.]./.).L.A.L.}.                                                          ",
"                    s.A t r w t % b n.I.s.z * : 4 e e e 4 : 4 U d.(.{..X.X].(.!.V.x.L.~.                                                    ",
"                  {.} m m r < 7 1 { d.d.d...n h d g z l v ' +.&.<.L./. X].!.}.U.{ ..U.!.A.L.                                                ",
"                  !.L r 0 9 < p / | b = d ( X.*.-.q.b.l.k.V.S.F.Z.L.W.W.L.P.~.n.4 6 V..X}.Y.S.A.~.                                          ",
"                    h.O.t , l F c u # > 5 6 d s ; d x D 6.e.g.d.f.x.B.m.V.A.U.x.d 4 a./.(.].}.~.v.v.                                        ",
"                        &.` / 3 O o o # 1 4 1 O O ; g c _ 4.5.&...+.;.=.,.p.x.d.H Z 7.V.A.L.L.S.V.U.U.I.                                    ",
"                      p.[ c 3 # # $ $ . X O ; ; s f g f c  .9.+.d i i s c ' o.%.S t  .2.3.p.2.s.v.D.U.Y.Y.                                  ",
"                    =.] d * O o + @ * ; s g f g g f f o.D.}.OXg.T Y L N e 1 6 e t 8 t c G / { X.%.,.3.s.f.x.v.U.                            ",
"                    | F c d g d g g d f f c c c f s 3 -.XX@XXXo.s z l k p 5 > > 7 8 N R O.$.-.:.=.=.%.X.o.=.3.z.v.L.                        ",
"                            p.1.2.=.' b b / ] v s 2 y O.G..XS.; . & * ; - @ + s +.v.!.                }.I.z.=.| o.:.z.I..X                  ",
"                                v.=./ / { ' b h Z K Y P Y &.| c c c f f d ; ; | v./.                        oX~.j.%. .X.s.}.@X              ",
"                            o.b f g c b l C L Q ~ ~ ~ J C  .%.&.=.=.,.,.,.-.%.X.o.X.&.1.x.F.~.oX                  {.L.2.{ =./.XX            ",
"                        { b { =.{ $ t J E W ! ~ Q J N F X.3.d.d.x.v.V.V.V.C.C.v.s.s.p.1.<.X.{ -.z.I.(.|.                ].V.L.oX            ",
"                                v.r M M M Z N 6 1 * b 2.x.V.C.S.V.z.3.=.%.=.2.s.a.7.8.#.6.0.q.z.s.2.=.=.z.}.                +X              ",
"                                  3 # + O O O . . O ` v.U./.}.].~.!.~.~.!.U.L.V.7.j.T.T.y.i.u.r.h.v.z.:.,.v.!.}.                            ",
"                                  3 $ o O O . . . O ` v.I./.}.(.~.~.~./.~.U.L.V.7.h.~.P.y.i.u.r.d.v.x.:.-.n.!.}.                            ",
"                                V.r M M M Z k e 2 * v 2.z.V.C.S.V.z.1.=.%.%.2.d.a.p.8.#.5.0.q.j.f.2.=.=.z.{.              OXXX              ",
"                      s.[ b { =.{ $ t V E W ! ! Y J N S +.3.d.f.z.v.V.V.C.C.C.v.s.p.p.1.<.X.{ -.x.P.(..X              +X}.V.I.oX            ",
"                          z.o.b f f c b l C K Q ~ ^ ~ J C  .=.&.=.:.,.,.,.:.%.o...o.%.2.z.J./.                    {.L.2.{ :./.OX            ",
"                              ~.v.=.b ] { ' v k Z K Y P Y &.| c c c c f s ; ; | v./.                        .X!.x.=.o.X.s.{.                ",
"                      T.S.d.p.2.2.-.[ b b / ' b u 5 p O.G. XV.; . & * - = @ O i +.n.!.                }.I.z.=. .o.:.z.P.                    ",
"                  x.| ` c f g d f f d g f j f c f s s -.oX@XoX..s f l k p q < > 7 8 N R O.@.-.-.=.=.%.X.o.&.3.x.v.D.                        ",
"                  U.*.] g * O O O @ * ; s s f f g f f o.A.].XXg.R Y P m w 2 6 e t 8 t c S F { o.%.,.3.d.z.z.v.U.                            ",
"                    /.p.] c 3 # $ # $ X O & - s s f g f c  .9.+.d s d s c ' o.%.S t  .2.p.p.1.s.v.D.U.Y.U.U.                                ",
"                      ~.&.( F u + o + # 1 4 = + O ; g c _ 4.5.-...+.;.=.,.p.z.d.H C 1.S.S.P.L.A.V.U.Y.P.                                    ",
"                    h.O.t 1 l F c 3 # : 4 i d u u d x D 6.t.g.d.j.c.B.m.V.A.!.x.d 4 a.(.(.].}.!.v.v./.                                      ",
"                  ~.P r 0 9 < p ` | n = s ) ..*.>.q.l.l.j.V.S.A.A.L.Q.W.L.I./.n.4 6 V..X}.U.S.A.~.                                          ",
"                  {.} m m q < 9 = { d.d.d...v h i f x l v [ +.+.<.L./. X_.~.}.U.{ X.P.T.A.D./.                                              ",
"                    g.S q r e r # b V.I.d.z * : 4 6 6 e 4 : 6 U h._.{. X X]./.!.V.v.I.~.                                                    ",
"                      A.X.e 4 t z =.T.U.&.k y 5 4 4 4 t Z } 7.L.].}.]./.).L.A.L.{.                                                          ",
"                          x.F U ,.A.F.p.c ; h G @.7.p.h.Z.!.]./.L.V.x.x.A.U.}.                                                              ",
"                          !.s.a.2.%.] b j { 2.f.p.%.,.F.L.C.n.x.n.L.}.                                                                      ",
"                  XX(.C.h.d.j.x.1.2.p.p.3.1.%.c @ @ ] z.z.V.{.                                                                              ",
"              .XY.s.X.X.=.:.1.s.{ F v g ; @ o O b 1.A.P.Z.E.                                                                                ",
"            +X!.x.d.v.A.L.L.U.A.] ; + . . . g =.z.M.H.R.].                                                                                  ",
"            .XL.s.1.2.,.=.=.=.2.-.,...f = c ,.c.G.R.)..X                                                                                    ",
"              {.L.f.2.2.1.d.V.A.L.U.I.L.m.N.R.).[..XoX                                                                                      ",
"                        A.Z.E.^.).`.`.`.).Q.W.}.XX                                                                                          ",
"                      }.x.B.R.R.R.I.J.D.D.U.{.                                                                                              ",
"                    }.S.n.J.A.S.V.V.S.I.{.                                                                                                  ",
"                |.!.A.C.D.D.A.v.A.Y.}.                                                                                                      ",
"          +X{.L.z.z.x.V.A.L.!.}..X                                                                                                          ",
"        oXY.s.:.d.S.Y.}.OX+X                                                                                                                ",
"          oX.XXX+X+X                                                                                                                        ",
"                                                                                                                                            ",
"                                                                                                                                            ",
"                                                                                                                                            ",
"                                                                                                                                            ",
"                                                                                                                                            ",
"                                                                                                                                            "
};
