/* XPM */
static char *_8f4d3dda7de4520dda6efb0294999a1wXavFnYE2fSQKvxj[] = {
/* columns rows colors chars-per-pixel */
"74 74 186 2 ",
"   c None",
".  c #030405",
"X  c #05060A",
"o  c #07080C",
"O  c #090A0D",
"+  c #040612",
"@  c #0B0C12",
"#  c #06081B",
"$  c #0B0D1C",
"%  c #060919",
"&  c #0E1013",
"*  c #111215",
"=  c #13141A",
"-  c #191A1C",
";  c #17181A",
":  c #0A0D24",
">  c #0C0F28",
",  c #070B2C",
"<  c #0E1124",
"1  c #0E112B",
"2  c #121525",
"3  c #171824",
"4  c #1C1D23",
"5  c #12152C",
"6  c #161A2C",
"7  c #191C2C",
"8  c #0A0E33",
"9  c #050A35",
"0  c #0E1239",
"q  c #111435",
"w  c #1A1D34",
"e  c #12153B",
"r  c #161A39",
"t  c #191D3B",
"y  c #141833",
"u  c #1F2025",
"i  c #1F2129",
"p  c #1D213D",
"a  c #1D2030",
"s  c #232425",
"d  c #23242A",
"f  c #27282B",
"g  c #2A2A2C",
"h  c #272826",
"j  c #232633",
"k  c #2D2E32",
"l  c #21253C",
"z  c #262838",
"x  c #2B2D3B",
"c  c #262833",
"v  c #2D3032",
"b  c #323334",
"n  c #35353A",
"m  c #36383C",
"M  c #3A3B3C",
"N  c #3F403F",
"B  c #161942",
"V  c #151B5B",
"C  c #171D55",
"Z  c #1D2242",
"A  c #1D224B",
"S  c #1D2355",
"D  c #262944",
"F  c #282C49",
"G  c #212749",
"H  c #373B46",
"J  c #3B3C43",
"K  c #36384F",
"L  c #3A3C4D",
"P  c #333549",
"I  c #252A51",
"U  c #292E54",
"Y  c #2C325C",
"T  c #363A57",
"R  c #1F2667",
"E  c #242C6D",
"W  c #2E3463",
"Q  c #2A326B",
"!  c #303662",
"~  c #403F40",
"^  c #3F4048",
"/  c #3C4042",
"(  c #3D4458",
")  c #434344",
"_  c #454549",
"`  c #47484A",
"'  c #4A4B4C",
"]  c #50504F",
"[  c #414356",
"{  c #464857",
"}  c #4E4F52",
"|  c #47495F",
" . c #535455",
".. c #595957",
"X. c #545559",
"o. c #55595A",
"O. c #5A5B5C",
"+. c #494C66",
"@. c #4E5161",
"#. c #5C5D62",
"$. c #5A5D71",
"%. c #5B5D7F",
"&. c #5F6669",
"*. c #59627B",
"=. c #646465",
"-. c #63656C",
";. c #67696C",
":. c #6B6C6C",
">. c #6C6D71",
",. c #636B7B",
"<. c #6F7072",
"1. c #667174",
"2. c #737474",
"3. c #797876",
"4. c #76777A",
"5. c #7B7B7B",
"6. c #807F7F",
"7. c #4B5783",
"8. c #56668C",
"9. c #7C7D81",
"0. c #737588",
"q. c #6E7490",
"w. c #807F80",
"e. c #5C8396",
"r. c #76898D",
"t. c #77819C",
"y. c #6E9296",
"u. c #6EA5BA",
"i. c #4FBAC2",
"p. c #48C7D5",
"a. c #838384",
"s. c #858589",
"d. c #87888B",
"f. c #8B8B8B",
"g. c #8A8887",
"h. c #858893",
"j. c #8D8F90",
"k. c #8F9194",
"l. c #849697",
"z. c #939394",
"x. c #959598",
"c. c #989799",
"v. c #97999B",
"b. c #9B9B9C",
"n. c #9D9EA2",
"m. c #9EA2A3",
"M. c #9DA7A8",
"N. c #9FADAE",
"B. c #9DABB2",
"V. c #A3A3A3",
"C. c #A9A8A7",
"Z. c #A7A7A9",
"A. c #A5AAAB",
"S. c #ABACAC",
"D. c #AFB0AF",
"F. c #A6A7B1",
"G. c #AAAEB1",
"H. c #A4B4B5",
"J. c #AEB1B1",
"K. c #AFB9B9",
"L. c #ABB0BC",
"P. c #B3B4B4",
"I. c #B3BCBC",
"U. c #BBBBBB",
"Y. c #BFC0BF",
"T. c #BEBFC0",
"R. c #AFC3C4",
"E. c #B4C3C3",
"W. c #BBC5C5",
"Q. c #BFCCCC",
"!. c #BCC6C8",
"~. c #C4C4C4",
"^. c #C7C7C9",
"/. c #C4CCCC",
"(. c #CCCCCC",
"). c #C5D3D4",
"_. c #CFD0D0",
"`. c #C6D9D8",
"'. c #D3D4D3",
"]. c #D3DCDB",
"[. c #D9DADA",
"{. c #E0DFDF",
"}. c #DFE4E4",
"|. c #E2E3E3",
" X c #E7E7EE",
".X c white",
/* pixels */
"                                                                                                                                                    ",
"                                                                                                                                                    ",
"                                                                                                                                                    ",
"                                                                                                                                                    ",
"                                                                                                                                                    ",
"                                                                                                                                                    ",
"                                                                                                                                                    ",
"                                                                                                                                                    ",
"                                                                                                                                                    ",
"                                                                                                                          U.V.g.2.g.                ",
"                                                                                                                  ~.P.S.b.c.z.x.P.                  ",
"                                                                                                            Y.C.V.S.S.S.S.J.                        ",
"                                                                                                        I.Z.V.V.Z.S.S.b.S.                          ",
"                                                                                                    U.P.D.D.I.E.E.R.N.n.                            ",
"                                                                                                '.!.!.Q.`.`.).).!.E.A.S.                            ",
"                                                                                            }.].Q.Y.M.M.D.U.U.D.S.V.g.5.5.5.f.P.                    ",
"                                                                                          ).E.N.x.1.b - k  .:.:.4.:.;.:.2.5.5.a.P.                  ",
"                                                                                        !.H.M.k.=.v . . . @ 4 ' V.U.P.D.S.c.g.b.                    ",
"                                                                                    Y.A.K.M.4.M & o O - f n J } a.5.2.=.O.=.a.U.                    ",
"                                                                                    C.x.f._ * * n =.3.5.a.5.3.5.c.f.f.z.S.                          ",
"                                                                            P.V.b.V.V.D.A.3.=.9.d.2.' v M ' =.2.s.d.                                ",
"                                                                    U.G.c.x.V.P.^._.T.A.x.5.4.$.L j - n a.  V.<.[ ^ z.                              ",
"                                                                U.S.P./.(._.[._.G.9.{ D r 5 5 1 6 r p ;.    >.k r < j #.                            ",
"                                                          U.b.b.W._._.}.|.[.(.d.[ 7 < 5 7 7 6 1 $ = k a.  b./ $ q y q y K s.                        ",
"                                                    P.S.T.P.O.} U.'.^._.].(.P.5.-.O._ n k c f i j m o.a.g.g.' 3 8 1 0 e B +.                        ",
"                                                P.S.U.'.{.n.w 6 b.^.P.P.W.W.P.C.S.C.n.z.l.l.r.1.&.o./ f - M ' M p 1 8 8 e T                         ",
"                                            V.n.Y.'.'._.(.s.2 j c.U.S.V.M.B.b.j.j.h.q.*.H v d 4 4 d 7 5 : : u b m k 2 w @.h.                        ",
"                                        U.U.P.V.Z.P.P.S.V.4.D H d.x.a.2.;.,.#.o.>.8.7.( b g - O @ = 2 < % o X @ u M ^ -.                            ",
"                                      U.U.U.D.b.a.5.6.6.3.X.t P #.o.` b h i u d O.q.@.M h h d s - ; @ o X + # # $ 4 k _ a.                          ",
"                                  b.z.z.g.6.2.=.O.' L H n w 9 q a 4 3 w t U Y T s. X'.C.o.g g f f g s s ; * @ @ O O * s _ :.                        ",
"                              b.z.5.;.O.O.=.;.;.:.>.$.+.K Z 0 9 , > 5 t z j c s ..|..X{.>.d s f v b v g h h g f h d h b )  .b.                      ",
"                          j.:.O.O.:.z.                        #.d o O ; = * & o s V.[.A.+.B 7 s b ) N M n _ ;.2.3.a.k.                              ",
"                      g.O.O.:.x.                              c.X.4 - h g k b k v ..-.T U Y U G z P ) ` ) ) ;.b.                                    ",
"                    2. .5.                          S.z.5.:.O.X.O.=.:.2.2.<.:.:.=.=. .F I Y W W Y U D x n b s g ) O.j.                              ",
"                    Z.                        x.<.] O.2.4.a.w.g.b.Z.Z.V.V.b.b.c.j.g.6.O.J l G W Q Q E E S e % ' =.' M  .g.                          ",
"                                      z.<.:.5.g.d.r.e.8.%.0.5.6.a.2.=.=.:.6.z.V.C.C.n.z.2.n = 3 w t Z C V V r n.                                    ",
"                                    V.:.:.z.b.j.y.i.p.u.L.~.z.6.V.P.U.~.^.~.~.^._.'.(.U.n.) O X X X o o @ % 4                                       ",
"                                    m.:.<.z.b.j.y.i.p.u.L.~.z.6.V.D.U.~.^.~.~.^.'.'.(.U.b.) O . . X o O @ $ 4                                       ",
"                                      z.<.:.5.g.f.r.e.8.8.0.9.9.g.3.=.:.:.6.z.V.C.C.n.x.3.n = 3 7 p A C V C e n.                                    ",
"                    Z.                      P.x.<.] O.2.4.a.a.s.b.V.V.V.V.V.b.z.j.f.6.O.H p G Y W Q E R S r % ' ;.' J ' s.                          ",
"                    2. .3.D.                        S.c.5.;.O.....O.:.2.2.2.:.:.=.=.X.F A Y W W W U D b n b s k ) ..f.                              ",
"                      g.#...:.j.                            ^.c. .u - h g g b g b  .-.T U Y U G z n ) ` ) ) =.b.                                    ",
"                        U.j.:...O.:.z.U.                    b.#.d O O ; ; * & X s Z.[.F.+.p 6 4 b ) ~ M n ) :.2.5.a.j.C.                            ",
"                            P.b.j.5.;...O.=.;.;.>.>.$.+.K Z 0 9 , > 5 w l z g s ..|..X{.;.d s g k b k k h h f f h h d k ) ..b.                      ",
"                                U.b.z.j.g.6.2.=.O.' L H n w 9 q t 4 3 w p U Y T s. X'.S...g g g g g h s ; * @ o o @ * d ) :.                        ",
"                                    U.U.Y.U.D.b.g.5.6.6.4.} t P #...) b s i d d #.q.@.M h d f s - - @ X X + # # $ 4 k _ a.                          ",
"                                      (.U.U.P.n.C.P.P.S.C.4.D P f.z.w.2.:.,.#.o.-.8.7.( b f - @ @ = < : % O o @ 4 M ) -.                            ",
"                                          ^.V.n.T._.'.(.(.s.5 d c.T.S.V.n.F.v.f.f.h.t.*.H v s - u d 7 6 : : 4 b m x 2 r @.h.                        ",
"                                              ~.P.S.U.'.|.V.w 5 b.^.I.P.!.W.P.Z.S.Z.m.z.l.l.r.1.-.o./ f - M ' M l 1 8 8 e K                         ",
"                                                    P.P.U.P.O.} U.'.^._.]./.P.5.&.#.` n v c k i j n o.s.f.g.' 3 8 : e e B +.                        ",
"                                                          U.b.b.~.(._.|.|.[.(.g.L w < 5 7 7 7 1 $ = c a.  n.J $ q 5 e q K s.                        ",
"                                                                U.S.P.).(.'.[.(.G.9.{ D r 5 5 1 6 w p ;.    :.c t < j #.Z.                          ",
"                                                                    U.S.b.c.V.P.^.(.T.F.z.9.4.$.K c ; n r.S.V.>.[ ^ z.                              ",
"                                                                            P.V.b.V.V.D.A.4.=.9.d.2.' b M ' =.3.s.g.                                ",
"                                                                                    C.x.g.` * * n =.4.5.a.6.4.5.x.f.f.z.Z.                          ",
"                                                                                      A.K.V.4.n @ o O - g b ~ ' a.5.<.;.#.=.a.U.                    ",
"                                                                                          H.M.j.=.g . . . @ 4 ` Z.P.P.D.S.b.g.x.                    ",
"                                                                                            R.H.x.<.b - k ..:.:.4.2.=.:.2.3.5.a.P.                  ",
"                                                                                                ).Y.M.m.S.U.U.P.S.n.g.5.5.5.j.P.                    ",
"                                                                                                  !.!.Q.`.`.).)./.E.A.S.'.                          ",
"                                                                                                    Y.P.S.J.I.E.E.R.A.b.(.                          ",
"                                                                                                        U.C.V.V.V.S.D.b.S.                          ",
"                                                                                                              S.V.S.D.S.C.D.                        ",
"                                                                                                                  ~.P.S.b.c.j.x.S.                  ",
"                                                                                                                          U.V.d.2.f.Y.              ",
"                                                                                                                                                    ",
"                                                                                                                                                    ",
"                                                                                                                                                    ",
"                                                                                                                                                    ",
"                                                                                                                                                    ",
"                                                                                                                                                    ",
"                                                                                                                                                    ",
"                                                                                                                                                    ",
"                                                                                                                                                    "
};
