/* XPM */
static char *ea01c9dc434f4fb1c175ecd4b13f5737QAbTP5nqZvjxgZkP[] = {
/* columns rows colors chars-per-pixel */
"64 64 188 2 ",
"   c None",
".  c #040507",
"X  c #050609",
"o  c #07080B",
"O  c #0A0B0E",
"+  c #0B0D13",
"@  c #0A0C1C",
"#  c #0F1014",
"$  c #0E101B",
"%  c #121315",
"&  c #14151A",
"*  c #1A1A1D",
"=  c #0A0D21",
"-  c #0E1124",
";  c #0E112C",
":  c #121424",
">  c #161824",
",  c #1C1E23",
"<  c #11142B",
"1  c #16192C",
"2  c #1C1E29",
"3  c #090D39",
"4  c #0D1132",
"5  c #0E1239",
"6  c #121633",
"7  c #151933",
"8  c #1A1D33",
"9  c #16193C",
"0  c #1A1E3B",
"q  c #131739",
"w  c #1F2025",
"e  c #1F202A",
"r  c #1D2032",
"t  c #1E223F",
"y  c #222326",
"u  c #23252B",
"i  c #27292B",
"p  c #2A2B2D",
"a  c #2C2D32",
"s  c #20233C",
"d  c #25293E",
"f  c #2B2E39",
"g  c #222632",
"h  c #2E3133",
"j  c #2F3138",
"k  c #313234",
"l  c #343639",
"z  c #3B3B3C",
"x  c #37383C",
"c  c #141841",
"v  c #1A1E45",
"b  c #161A47",
"n  c #1E2345",
"m  c #1D2358",
"M  c #1C2154",
"N  c #222642",
"B  c #22274B",
"V  c #23294E",
"C  c #242841",
"Z  c #313347",
"A  c #3D3E42",
"S  c #30334B",
"D  c #37394D",
"F  c #3C3E4E",
"G  c #282E55",
"H  c #292F5B",
"J  c #343956",
"K  c #3C3E51",
"L  c #30355B",
"P  c #35395C",
"I  c #383D5C",
"U  c #323756",
"Y  c #181F61",
"T  c #171E67",
"R  c #2F3560",
"E  c #2E356E",
"W  c #303765",
"Q  c #343A62",
"!  c #30376B",
"~  c #323869",
"^  c #222A70",
"/  c #293173",
"(  c #3F4040",
")  c #3F4150",
"_  c #434445",
"`  c #454648",
"'  c #4B4C4D",
"]  c #404450",
"[  c #4D4D51",
"{  c #44475F",
"}  c #4F5051",
"|  c #535355",
" . c #575758",
".. c #57585D",
"X. c #5C5C5D",
"o. c #4C4F6D",
"O. c #4D506F",
"+. c #5C5D63",
"@. c #5B5F68",
"#. c #4E537A",
"$. c #5C5F75",
"%. c #5F6278",
"&. c #646465",
"*. c #64656A",
"=. c #63696C",
"-. c #6C6C6D",
";. c #6C6D71",
":. c #666878",
">. c #667072",
",. c #6F7075",
"<. c #737474",
"1. c #7B7C7C",
"2. c #777878",
"3. c #535E8E",
"4. c #4B5A92",
"5. c #4F6B92",
"6. c #6C6E80",
"7. c #687082",
"8. c #7C7C84",
"9. c #606F91",
"0. c #6E749B",
"q. c #6B8B8F",
"w. c #7F8081",
"e. c #658897",
"r. c #7E8F91",
"t. c #7E89A5",
"y. c #6EA1B3",
"u. c #4FC3CD",
"i. c #44CCDC",
"p. c #848484",
"a. c #868789",
"s. c #8B8C8C",
"d. c #828D8F",
"f. c #8D8E91",
"g. c #828D90",
"h. c #908F90",
"j. c #8F9090",
"k. c #8A979A",
"l. c #939494",
"z. c #969699",
"x. c #969A9C",
"c. c #9B9C9C",
"v. c #808AA3",
"b. c #9F9FA0",
"n. c #8CA7A9",
"m. c #9DA1A1",
"M. c #9FA0A8",
"N. c #9CACAD",
"B. c #9FB3B4",
"V. c #A4A4A4",
"C. c #A8A7A7",
"Z. c #A3AAAB",
"A. c #ABABAB",
"S. c #B0AFAF",
"D. c #A8A9B0",
"F. c #A9B6B6",
"G. c #A2B2B9",
"H. c #A4B5B6",
"J. c #B3B4B4",
"K. c #B6B8B8",
"L. c #BBBBBC",
"P. c #B7B7B8",
"I. c #B9BBC1",
"U. c #B5C3C3",
"Y. c #B1C7C9",
"T. c #B5C8C9",
"R. c #BCC8C9",
"E. c #BFC0C0",
"W. c #C3C3C4",
"Q. c #C3CBCC",
"!. c #CBCBCC",
"~. c #C7C7C8",
"^. c #CFCFD0",
"/. c #C4D3D3",
"(. c #CDD1D1",
"). c #C9DCDC",
"_. c #C6D9D9",
"`. c #D3D4D4",
"'. c #DBDBDB",
"]. c #D1D9D9",
"[. c #DFDFE2",
"{. c #DCE6E6",
"}. c #E3E3E3",
"|. c #E7EAEA",
" X c #EBEBEB",
".X c #F0EFEE",
"XX c #F4F4F4",
"oX c gray99",
/* pixels */
"                                                                                                                                ",
"                                                                                                                                ",
"                                                                                                                                ",
"      }.p. X                                                                                                          8.        ",
"      XX&.P.        }.A.                                                                              ~.A.            &.        ",
"      oXl.s.|.    oXK.p.j.~.                                                                        !.f.a.P.        s.l.        ",
"        C.l.W.    XXs.p.a.p.            ~.        l.                        l.                      w.s.p.s.        l.C.        ",
"        L.m.V.'.  }.<.p.c. .'.      f.K B l.    +.'                         ' X.    l.V K f.         .b.1.<.}.  '.V.b.          ",
"        '.V.A.c.}.'.<.<.S.X.C.    L.N v 9 o.'.,.' _       p.        p.      _ ' <.  { 9 v s       V.X.S.<.<.'.[.c.A.V.          ",
"          C.K.V.s.P.1.-.J.-.a.  .X[ 7 b c 7 +.[ i k A.    _         _     C.k p ' +.0 c v 7 [     a.-.J.-.1.K.f.C.P.A.          ",
"          A.J.P.H.x.l.-.K.<.s.W.b.> v q 6 < z z + p s.  l.l         k l.  h.p # z A : 6 9 b < c.~.s.<.K.-.l.x.H.P.P.A.          ",
"          ~.A.A.T.R.C.-.E.1.z.s.k 8 7 < ; g ' * + p p.   .'         '  .  p.p O * ' g 4 : 8 8 j a.c.1.E.-.V.R.T.A.C.            ",
"          '.b.C.U.Q.A.<.L.p.z.h.S n 9 5 7 ' , = O p 2.  h ,.        <.h ^.2.p O @ , ' 7 5 0 N S s.l.a.L.;.S.Q.U.C.V.            ",
"          |.C.C.R./.J.2.z | 2.p.1.u : # ` z o = + p 2.b.p } c.~.~.x.} p b.2.p O = . z _ + : u 2.w.1.| z 2.J./.R.C.C.            ",
"            L.C.U._.L.1.% ` 2.+.P.-.a } &.& o @ O i 1.&.p # 5 2 , 4 @ p &.2.i O = o & &.} a ;.P.+.2._ % 1.E._.I.C.L.            ",
"            [.V.J.).L.X.+ l p._ J.W.V.h.k @ + @ % p ' l A 7 T + + T 8 A l ' i % @ + = j h.V.W.J._ p.x O X.L.).F.V.              ",
"              P.J.).J.i . p p.l w.!.L.a.# ; $ . * p k ` z V Y + + Y m z _ k h * . $ ; # s.L.~.w.l a.p o i J.).F.J.              ",
"                A._.Z.+ . , p.l h +.x.j., 8 : o i k z | f ^ M O O M ^ a | x h i o ; 8 w l.z.&.a l w.* . # Z._.A.                ",
"                L.Q.Z.k . % p.` y s y &._ 2 7 O i h _ ' N / B o o B / s } ( h p O 7 e ( &.2 s u _ p.% . k Z.Q.K.                ",
"                  U.U.8.y . ,.<.u s # j =.y : * h k ' l H E N . o N ! L k ' k h * $ w =.j # N e <.<.. y w.U.E.                  ",
"                  `./.x.<.. k c.Z r - g =.y O y i k z e ! W g . . 8 W ~ r ( h p w O i =.g - 1 Z m.k . ,.x./.                    ",
"                    ].N.m.k + s.%.- 7 u >.w O i i k , V W W > . . > W W V * k i i O w >.u 7 - %.s.O h V.N.                      ",
"                      Y.m.s.. X.d.- r i r.y * p k y 1 L P H % o O # G P R > y h p * y r.p r ; f.X.. s.m.Y.                      ",
"                      (.B.K._ <.p.4 e p n.a p h p & V P ~ t x ` _ z t W I C * p h p a n.g e 4 p.<.A P.B.                        ",
"                        U.F.c.J.s.9 r f k.l z p  .,.J J L a 1.V.V.1.h H P I ;. .p z l k.f 8 9 f.J.c.F.                          ",
"                          N.l.K.D.N 8 x h.9.) h A.oXA.L d &.z.L.L.z.&.N L A.oXA.a ] 9.f.l 8 C D.K.l.                            ",
"                            m.A.!.) < ` b.v.4.] '.oXXX*.} p.b.!.!.V.p.} @.XXoX'.' 4.t.V.' : ) ~.C.V.                            ",
"                              c.'.8.- -.C.s.3.0..X.XC.' -.s.C.'.'.A.a.-.' C.oXXX0.3.s.C.*.- 8.'.c.                              ",
"                              l.!.I.S =.J.s.-.;.f.} % z -.j.C.`.`.A.h.-.z % } f.-.*.s.S.=.S W.!.l.                              ",
"                              c.P.'.l.-.S.l.X.u U w X x -.z.C.~.~.C.l.-.z o y U u X.l.S.;.l.`.K.c.                              ",
"                              P.V.`.`.L.S.z.@.y Q f # k -.b.z.W.W.z.V.-.k % a Q y @.z.F.E.`.`.V.                                ",
"                                h.`.[.!.R.G.7.y G f % h 2.C.w.!.!.w.C.<.p % f G y 7.G.W.!.[.`.l.                                ",
"                                l.^.}.{.Q.b.-.y N d * p 2.C.-.!.!.-.V.2.p * f N y -.V.Q.{.{.^.l.                                ",
"                                C./.|.^.J.A.2.k 7 s * i <.C.&.!.!.&.V.<.i * t 8 k <.C.S.`.|._.                                  ",
"                                E.K.^.!.L.C.p.' > 7 # * <.C.&.E.E.&.A.<., + 7 & ' p.A.K.~.^.K.                                  ",
"                                  C.`.`.`.W.l. .2 < + % -.C.2.P.K.<.A.-.% + < 2 X.l.W.`.`.`.A.                                  ",
"                                  S.U.^.b.x.h.&.0 4 2 | X.V.s.V.C.s.V.X.| 2 4 0 +.h.c.x.^.L.                                    ",
"                                    C.z < e K F 7 3 ..C.| a.h.2.2.f.p.| C...3 6 F F u < A A.                                    ",
"                                    b.X.1 7 s 9 c 6 b.`. .p.a.f.f.a.p. .`.M.; c c t 1 1 X.c.                                    ",
"                                      !.V.8.a.[ 0 v !.}.*.a.:.!.(.6.a.&.}.!.n 7 } a.8.C.!.                                      ",
"                                      L. X`.V.w.k D [. X2.p.#.I.I.#.p.2.    D k 1.C.`.|.L.                                      ",
"                                        }.^.C.p.D o.    l.1.5.y.y.5.1.l.    O.D p.A.!.}.C.                                      ",
"                                        W.`.L.p.A %.    J.X.e.i.i.e.X.S.    :.A p.L.`.W.                                        ",
"                                          '.E.<.| -.    ^._ d.u.u.g._ !.    ;.| <.L.'.b.                                        ",
"                                          `.V.p.+.<.      -.c.q.q.c.-.      ,.X.p.V.`.C.                                        ",
"                                            c.C.&.-.      z.s.s.h.s.z.      -.&.C.b.z.                                          ",
"                                            ~.S.<.-.      L.<.V.V.<.K.      -.<.A.~.j.                                          ",
"                                              K.p.&.      `.&.c.c.&.`.      &.p.L.E.                                            ",
"                                              ~.s.X.'.      -.<.<.-.        X.s.~.S.                                            ",
"                                                l.X.L.      l.-.-.l.      L.| l.W.                                              ",
"                                                z.-.l.        c.z.        l.-.z.P.                                              ",
"                                                c.p.*.                    -.p.c.                                                ",
"                                                  c.} !.                ^.} z.L.                                                ",
"                                                  c. .z.                l. .b.                                                  ",
"                                                    2.&.                &.<.A.                                                  ",
"                                                    l.} K.            K.[ l.                                                    ",
"                                                      X.2.            1. .L.                                                    ",
"                                                        z             z s.                                                      ",
"                                                                      *.                                                        ",
"                                                                                                                                ",
"                                                                                                                                ",
"                                                                                                                                ",
"                                                                                                                                ",
"                                                                                                                                "
};
